<mxfile host="Electron" modified="2023-07-12T03:12:37.854Z" agent="Mozilla/5.0 (Windows NT 10.0; Win64; x64) AppleWebKit/537.36 (KHTML, like Gecko) draw.io/21.5.0 Chrome/112.0.5615.204 Electron/24.5.1 Safari/537.36" etag="SGNXrvZE6qrzhvnXw783" version="21.5.0" type="device">
  <diagram name="第 1 页" id="6rnWkG9CkjdkXFh_P4D_">
    <mxGraphModel dx="1728" dy="1004" grid="1" gridSize="10" guides="1" tooltips="1" connect="1" arrows="1" fold="1" page="1" pageScale="1" pageWidth="1169" pageHeight="827" math="0" shadow="0">
      <root>
        <mxCell id="0" />
        <mxCell id="1" parent="0" />
        <mxCell id="1mb2q4nJSbc4ep4aBZYX-39" value="" style="rounded=1;whiteSpace=wrap;html=1;arcSize=13;" parent="1" vertex="1">
          <mxGeometry x="807" y="574.5" width="63" height="217" as="geometry" />
        </mxCell>
        <mxCell id="es45ClDYx7fJwn_WHZkU-2" value="" style="endArrow=classic;html=1;rounded=0;entryX=-0.006;entryY=0.078;entryDx=0;entryDy=0;entryPerimeter=0;" parent="1" edge="1">
          <mxGeometry width="50" height="50" relative="1" as="geometry">
            <mxPoint x="29.35" y="68.5" as="sourcePoint" />
            <mxPoint x="114.39729999999997" y="68.63999999999999" as="targetPoint" />
          </mxGeometry>
        </mxCell>
        <mxCell id="es45ClDYx7fJwn_WHZkU-3" value="&lt;font style=&quot;font-size: 7px;&quot;&gt;32&#39;b0&lt;/font&gt;" style="text;strokeColor=none;align=center;fillColor=none;html=1;verticalAlign=middle;whiteSpace=wrap;rounded=0;" parent="1" vertex="1">
          <mxGeometry x="80.44999999999999" y="57.5" width="30" height="10" as="geometry" />
        </mxCell>
        <mxCell id="es45ClDYx7fJwn_WHZkU-4" value="" style="endArrow=classic;html=1;rounded=0;entryX=0.001;entryY=0.538;entryDx=0;entryDy=0;entryPerimeter=0;" parent="1" edge="1">
          <mxGeometry width="50" height="50" relative="1" as="geometry">
            <mxPoint x="29.35" y="128.5" as="sourcePoint" />
            <mxPoint x="114.57545000000005" y="128.43999999999994" as="targetPoint" />
          </mxGeometry>
        </mxCell>
        <mxCell id="es45ClDYx7fJwn_WHZkU-5" value="&lt;font style=&quot;font-size: 7px;&quot;&gt;branch_csr_pc_i[31:0]&lt;/font&gt;" style="text;strokeColor=none;align=center;fillColor=none;html=1;verticalAlign=middle;whiteSpace=wrap;rounded=0;" parent="1" vertex="1">
          <mxGeometry x="37.449999999999996" y="116.5" width="66" height="10" as="geometry" />
        </mxCell>
        <mxCell id="es45ClDYx7fJwn_WHZkU-6" value="" style="endArrow=classic;html=1;rounded=0;entryX=-0.006;entryY=0.715;entryDx=0;entryDy=0;entryPerimeter=0;" parent="1" edge="1">
          <mxGeometry width="50" height="50" relative="1" as="geometry">
            <mxPoint x="29.35" y="151.5" as="sourcePoint" />
            <mxPoint x="114.39729999999997" y="151.45000000000005" as="targetPoint" />
          </mxGeometry>
        </mxCell>
        <mxCell id="es45ClDYx7fJwn_WHZkU-7" value="&lt;font style=&quot;font-size: 7px;&quot;&gt;branch_d_exec0_pc_i[31:0]&lt;/font&gt;" style="text;strokeColor=none;align=center;fillColor=none;html=1;verticalAlign=middle;whiteSpace=wrap;rounded=0;" parent="1" vertex="1">
          <mxGeometry x="16.449999999999996" y="139.5" width="90" height="10" as="geometry" />
        </mxCell>
        <mxCell id="es45ClDYx7fJwn_WHZkU-10" value="" style="endArrow=classic;html=1;rounded=0;entryX=-0.002;entryY=0.868;entryDx=0;entryDy=0;entryPerimeter=0;" parent="1" edge="1">
          <mxGeometry width="50" height="50" relative="1" as="geometry">
            <mxPoint x="29.35" y="171.5" as="sourcePoint" />
            <mxPoint x="114.4991" y="171.33999999999992" as="targetPoint" />
          </mxGeometry>
        </mxCell>
        <mxCell id="es45ClDYx7fJwn_WHZkU-11" value="&lt;font style=&quot;font-size: 7px;&quot;&gt;branch_d_exec0_pc_i[31:0]&lt;/font&gt;" style="text;strokeColor=none;align=center;fillColor=none;html=1;verticalAlign=middle;whiteSpace=wrap;rounded=0;" parent="1" vertex="1">
          <mxGeometry x="17.449999999999996" y="159.5" width="88" height="10" as="geometry" />
        </mxCell>
        <mxCell id="es45ClDYx7fJwn_WHZkU-12" value="" style="endArrow=classic;html=1;rounded=0;entryX=0;entryY=0.229;entryDx=0;entryDy=0;entryPerimeter=0;" parent="1" edge="1">
          <mxGeometry width="50" height="50" relative="1" as="geometry">
            <mxPoint x="29.35" y="88.5" as="sourcePoint" />
            <mxPoint x="114.54999999999995" y="88.26999999999998" as="targetPoint" />
          </mxGeometry>
        </mxCell>
        <mxCell id="es45ClDYx7fJwn_WHZkU-13" value="&lt;font style=&quot;font-size: 7px;&quot;&gt;px_x_q+32&#39;d8&lt;/font&gt;" style="text;strokeColor=none;align=center;fillColor=none;html=1;verticalAlign=middle;whiteSpace=wrap;rounded=0;" parent="1" vertex="1">
          <mxGeometry x="58.44999999999999" y="76.5" width="47.1" height="10" as="geometry" />
        </mxCell>
        <mxCell id="es45ClDYx7fJwn_WHZkU-14" value="" style="endArrow=classic;html=1;rounded=0;entryX=0.002;entryY=0.383;entryDx=0;entryDy=0;entryPerimeter=0;" parent="1" edge="1">
          <mxGeometry width="50" height="50" relative="1" as="geometry">
            <mxPoint x="29.35" y="108.5" as="sourcePoint" />
            <mxPoint x="114.60090000000002" y="108.28999999999996" as="targetPoint" />
          </mxGeometry>
        </mxCell>
        <mxCell id="es45ClDYx7fJwn_WHZkU-16" value="&lt;font style=&quot;font-size: 7px;&quot;&gt;px_x_q+32&#39;d4&lt;/font&gt;" style="text;strokeColor=none;align=center;fillColor=none;html=1;verticalAlign=middle;whiteSpace=wrap;rounded=0;" parent="1" vertex="1">
          <mxGeometry x="56.44999999999999" y="95.5" width="51.1" height="10" as="geometry" />
        </mxCell>
        <mxCell id="es45ClDYx7fJwn_WHZkU-31" value="&lt;font style=&quot;font-size: 7px;&quot;&gt;fetch0_valid_i&lt;/font&gt;" style="text;strokeColor=none;align=center;fillColor=none;html=1;verticalAlign=middle;whiteSpace=wrap;rounded=0;" parent="1" vertex="1">
          <mxGeometry x="181" y="127.11" width="50" height="10" as="geometry" />
        </mxCell>
        <mxCell id="4Q71xVZbWHCX4HzjCJ2O-1" value="&lt;font style=&quot;font-size: 7px;&quot;&gt;fetch1_valid_i&lt;/font&gt;" style="text;strokeColor=none;align=center;fillColor=none;html=1;verticalAlign=middle;whiteSpace=wrap;rounded=0;" parent="1" vertex="1">
          <mxGeometry x="181.09999999999997" y="146.67000000000002" width="50" height="10" as="geometry" />
        </mxCell>
        <mxCell id="4Q71xVZbWHCX4HzjCJ2O-18" value="&lt;font style=&quot;font-size: 7px;&quot;&gt;slot0_valid_r&lt;/font&gt;" style="text;strokeColor=none;align=center;fillColor=none;html=1;verticalAlign=middle;whiteSpace=wrap;rounded=0;" parent="1" vertex="1">
          <mxGeometry x="57" y="247.04000000000002" width="41.15" height="10" as="geometry" />
        </mxCell>
        <mxCell id="4Q71xVZbWHCX4HzjCJ2O-19" value="&lt;font style=&quot;font-size: 7px;&quot;&gt;slot1_valid_r&lt;/font&gt;" style="text;strokeColor=none;align=center;fillColor=none;html=1;verticalAlign=middle;whiteSpace=wrap;rounded=0;" parent="1" vertex="1">
          <mxGeometry x="55.14999999999998" y="268.04" width="44.85" height="10" as="geometry" />
        </mxCell>
        <mxCell id="4Q71xVZbWHCX4HzjCJ2O-20" value="" style="endArrow=classic;html=1;rounded=0;" parent="1" edge="1">
          <mxGeometry width="50" height="50" relative="1" as="geometry">
            <mxPoint x="29" y="590" as="sourcePoint" />
            <mxPoint x="109" y="590" as="targetPoint" />
          </mxGeometry>
        </mxCell>
        <mxCell id="4Q71xVZbWHCX4HzjCJ2O-21" value="" style="endArrow=classic;html=1;rounded=0;movable=1;resizable=1;rotatable=1;deletable=1;editable=1;locked=0;connectable=1;" parent="1" edge="1">
          <mxGeometry width="50" height="50" relative="1" as="geometry">
            <mxPoint x="29" y="610" as="sourcePoint" />
            <mxPoint x="109" y="610" as="targetPoint" />
          </mxGeometry>
        </mxCell>
        <mxCell id="4Q71xVZbWHCX4HzjCJ2O-22" value="" style="endArrow=classic;html=1;rounded=0;" parent="1" edge="1">
          <mxGeometry width="50" height="50" relative="1" as="geometry">
            <mxPoint x="29" y="630" as="sourcePoint" />
            <mxPoint x="109" y="630" as="targetPoint" />
          </mxGeometry>
        </mxCell>
        <mxCell id="4Q71xVZbWHCX4HzjCJ2O-23" value="" style="endArrow=classic;html=1;rounded=0;" parent="1" edge="1">
          <mxGeometry width="50" height="50" relative="1" as="geometry">
            <mxPoint x="29" y="650" as="sourcePoint" />
            <mxPoint x="109" y="650" as="targetPoint" />
          </mxGeometry>
        </mxCell>
        <mxCell id="4Q71xVZbWHCX4HzjCJ2O-24" value="" style="endArrow=classic;html=1;rounded=0;" parent="1" edge="1">
          <mxGeometry width="50" height="50" relative="1" as="geometry">
            <mxPoint x="29" y="670" as="sourcePoint" />
            <mxPoint x="109" y="670" as="targetPoint" />
          </mxGeometry>
        </mxCell>
        <mxCell id="4Q71xVZbWHCX4HzjCJ2O-25" value="" style="endArrow=classic;html=1;rounded=0;" parent="1" edge="1">
          <mxGeometry width="50" height="50" relative="1" as="geometry">
            <mxPoint x="29" y="690" as="sourcePoint" />
            <mxPoint x="109" y="690" as="targetPoint" />
          </mxGeometry>
        </mxCell>
        <mxCell id="4Q71xVZbWHCX4HzjCJ2O-26" value="" style="endArrow=classic;html=1;rounded=0;" parent="1" edge="1">
          <mxGeometry width="50" height="50" relative="1" as="geometry">
            <mxPoint x="29" y="710" as="sourcePoint" />
            <mxPoint x="109" y="710" as="targetPoint" />
          </mxGeometry>
        </mxCell>
        <mxCell id="4Q71xVZbWHCX4HzjCJ2O-27" value="" style="endArrow=classic;html=1;rounded=0;" parent="1" edge="1">
          <mxGeometry width="50" height="50" relative="1" as="geometry">
            <mxPoint x="29" y="730" as="sourcePoint" />
            <mxPoint x="109" y="730" as="targetPoint" />
          </mxGeometry>
        </mxCell>
        <mxCell id="4Q71xVZbWHCX4HzjCJ2O-29" value="&lt;font style=&quot;font-size: 7px;&quot;&gt;fetch1_valid_i&lt;/font&gt;" style="text;strokeColor=none;align=center;fillColor=none;html=1;verticalAlign=middle;whiteSpace=wrap;rounded=0;" parent="1" vertex="1">
          <mxGeometry x="47" y="594" width="50" height="10" as="geometry" />
        </mxCell>
        <mxCell id="4Q71xVZbWHCX4HzjCJ2O-30" value="&lt;font style=&quot;font-size: 7px;&quot;&gt;1&#39;b1&lt;/font&gt;" style="text;strokeColor=none;align=center;fillColor=none;html=1;verticalAlign=middle;whiteSpace=wrap;rounded=0;" parent="1" vertex="1">
          <mxGeometry x="67.5" y="576" width="21" height="13" as="geometry" />
        </mxCell>
        <mxCell id="4Q71xVZbWHCX4HzjCJ2O-31" value="&lt;font style=&quot;font-size: 7px;&quot;&gt;fetch0_pc_i[31:0]&lt;/font&gt;" style="text;strokeColor=none;align=center;fillColor=none;html=1;verticalAlign=middle;whiteSpace=wrap;rounded=0;" parent="1" vertex="1">
          <mxGeometry x="47" y="638" width="50" height="10" as="geometry" />
        </mxCell>
        <mxCell id="4Q71xVZbWHCX4HzjCJ2O-32" value="&lt;font style=&quot;font-size: 7px;&quot;&gt;fetch0_fault _page_i&lt;/font&gt;" style="text;strokeColor=none;align=center;fillColor=none;html=1;verticalAlign=middle;whiteSpace=wrap;rounded=0;" parent="1" vertex="1">
          <mxGeometry x="33" y="656" width="66" height="10" as="geometry" />
        </mxCell>
        <mxCell id="4Q71xVZbWHCX4HzjCJ2O-33" value="&lt;font style=&quot;font-size: 7px;&quot;&gt;fetch0_fault _fetch_i&lt;/font&gt;" style="text;strokeColor=none;align=center;fillColor=none;html=1;verticalAlign=middle;whiteSpace=wrap;rounded=0;" parent="1" vertex="1">
          <mxGeometry x="33" y="678" width="66" height="10" as="geometry" />
        </mxCell>
        <mxCell id="4Q71xVZbWHCX4HzjCJ2O-35" value="" style="endArrow=classic;html=1;rounded=0;" parent="1" edge="1">
          <mxGeometry width="50" height="50" relative="1" as="geometry">
            <mxPoint x="29" y="750" as="sourcePoint" />
            <mxPoint x="109" y="750" as="targetPoint" />
          </mxGeometry>
        </mxCell>
        <mxCell id="4Q71xVZbWHCX4HzjCJ2O-36" value="" style="endArrow=classic;html=1;rounded=0;" parent="1" edge="1">
          <mxGeometry width="50" height="50" relative="1" as="geometry">
            <mxPoint x="29" y="770" as="sourcePoint" />
            <mxPoint x="109" y="770" as="targetPoint" />
          </mxGeometry>
        </mxCell>
        <mxCell id="4Q71xVZbWHCX4HzjCJ2O-37" value="&lt;font style=&quot;font-size: 7px;&quot;&gt;fetch0_instr_i[31:0]&lt;/font&gt;" style="text;strokeColor=none;align=center;fillColor=none;html=1;verticalAlign=middle;whiteSpace=wrap;rounded=0;" parent="1" vertex="1">
          <mxGeometry x="39.5" y="618" width="57" height="10" as="geometry" />
        </mxCell>
        <mxCell id="4Q71xVZbWHCX4HzjCJ2O-38" value="&lt;font style=&quot;font-size: 7px;&quot;&gt;fetch1_pc_i[31:0]&lt;/font&gt;" style="text;strokeColor=none;align=center;fillColor=none;html=1;verticalAlign=middle;whiteSpace=wrap;rounded=0;" parent="1" vertex="1">
          <mxGeometry x="47" y="718" width="50" height="10" as="geometry" />
        </mxCell>
        <mxCell id="4Q71xVZbWHCX4HzjCJ2O-39" value="&lt;font style=&quot;font-size: 7px;&quot;&gt;fetch1_fault _page_i&lt;/font&gt;" style="text;strokeColor=none;align=center;fillColor=none;html=1;verticalAlign=middle;whiteSpace=wrap;rounded=0;" parent="1" vertex="1">
          <mxGeometry x="34" y="738" width="66" height="10" as="geometry" />
        </mxCell>
        <mxCell id="4Q71xVZbWHCX4HzjCJ2O-40" value="&lt;font style=&quot;font-size: 7px;&quot;&gt;fetch1_fault _fetch_i&lt;/font&gt;" style="text;strokeColor=none;align=center;fillColor=none;html=1;verticalAlign=middle;whiteSpace=wrap;rounded=0;" parent="1" vertex="1">
          <mxGeometry x="34" y="757" width="66" height="10" as="geometry" />
        </mxCell>
        <mxCell id="4Q71xVZbWHCX4HzjCJ2O-41" value="&lt;font style=&quot;font-size: 7px;&quot;&gt;fetch1_instr_i[31:0]&lt;/font&gt;" style="text;strokeColor=none;align=center;fillColor=none;html=1;verticalAlign=middle;whiteSpace=wrap;rounded=0;" parent="1" vertex="1">
          <mxGeometry x="40" y="695" width="57" height="10" as="geometry" />
        </mxCell>
        <mxCell id="4Q71xVZbWHCX4HzjCJ2O-43" value="&lt;font style=&quot;font-size: 7px;&quot;&gt;issue_a_ra_idx_w[4:0]&lt;/font&gt;" style="text;strokeColor=none;align=center;fillColor=none;html=1;verticalAlign=middle;whiteSpace=wrap;rounded=0;" parent="1" vertex="1">
          <mxGeometry x="160" y="338" width="80" height="10" as="geometry" />
        </mxCell>
        <mxCell id="4Q71xVZbWHCX4HzjCJ2O-45" value="&lt;font style=&quot;font-size: 7px;&quot;&gt;issue_a_rb_idx_w[4:0]&lt;/font&gt;" style="text;strokeColor=none;align=center;fillColor=none;html=1;verticalAlign=middle;whiteSpace=wrap;rounded=0;" parent="1" vertex="1">
          <mxGeometry x="160" y="358" width="80" height="10" as="geometry" />
        </mxCell>
        <mxCell id="4Q71xVZbWHCX4HzjCJ2O-47" value="&lt;font style=&quot;font-size: 7px;&quot;&gt;issue_a_rd_idx_w[4:0]&lt;/font&gt;" style="text;strokeColor=none;align=center;fillColor=none;html=1;verticalAlign=middle;whiteSpace=wrap;rounded=0;" parent="1" vertex="1">
          <mxGeometry x="161" y="417.86" width="80" height="10" as="geometry" />
        </mxCell>
        <mxCell id="4Q71xVZbWHCX4HzjCJ2O-49" value="&lt;font style=&quot;font-size: 7px;&quot;&gt;issue_a_sb_alloc_w&lt;/font&gt;" style="text;strokeColor=none;align=center;fillColor=none;html=1;verticalAlign=middle;whiteSpace=wrap;rounded=0;" parent="1" vertex="1">
          <mxGeometry x="158" y="438" width="80" height="10" as="geometry" />
        </mxCell>
        <mxCell id="4Q71xVZbWHCX4HzjCJ2O-51" value="&lt;font style=&quot;font-size: 7px;&quot;&gt;issue_a_exec_w&lt;/font&gt;" style="text;strokeColor=none;align=center;fillColor=none;html=1;verticalAlign=middle;whiteSpace=wrap;rounded=0;" parent="1" vertex="1">
          <mxGeometry x="161" y="458" width="62" height="10" as="geometry" />
        </mxCell>
        <mxCell id="4Q71xVZbWHCX4HzjCJ2O-53" value="&lt;font style=&quot;font-size: 7px;&quot;&gt;issue_a_lsu_w&lt;/font&gt;" style="text;strokeColor=none;align=center;fillColor=none;html=1;verticalAlign=middle;whiteSpace=wrap;rounded=0;" parent="1" vertex="1">
          <mxGeometry x="166" y="478" width="48" height="10" as="geometry" />
        </mxCell>
        <mxCell id="4Q71xVZbWHCX4HzjCJ2O-59" value="&lt;font style=&quot;font-size: 7px;&quot;&gt;issue_a_mul_w&lt;/font&gt;" style="text;strokeColor=none;align=center;fillColor=none;html=1;verticalAlign=middle;whiteSpace=wrap;rounded=0;" parent="1" vertex="1">
          <mxGeometry x="165" y="498" width="51" height="10" as="geometry" />
        </mxCell>
        <mxCell id="4Q71xVZbWHCX4HzjCJ2O-61" value="&lt;font style=&quot;font-size: 7px;&quot;&gt;issue_a_div_w&lt;/font&gt;" style="text;strokeColor=none;align=center;fillColor=none;html=1;verticalAlign=middle;whiteSpace=wrap;rounded=0;" parent="1" vertex="1">
          <mxGeometry x="165" y="518" width="48" height="10" as="geometry" />
        </mxCell>
        <mxCell id="4Q71xVZbWHCX4HzjCJ2O-62" value="" style="endArrow=classic;html=1;rounded=0;" parent="1" edge="1">
          <mxGeometry width="50" height="50" relative="1" as="geometry">
            <mxPoint x="160" y="710" as="sourcePoint" />
            <mxPoint x="870" y="730" as="targetPoint" />
            <Array as="points">
              <mxPoint x="270" y="710" />
              <mxPoint x="270" y="810" />
              <mxPoint x="940" y="810" />
              <mxPoint x="940" y="730" />
            </Array>
          </mxGeometry>
        </mxCell>
        <mxCell id="4Q71xVZbWHCX4HzjCJ2O-63" value="&lt;font style=&quot;font-size: 7px;&quot;&gt;issue_a_invalid_w&lt;/font&gt;" style="text;strokeColor=none;align=center;fillColor=none;html=1;verticalAlign=middle;whiteSpace=wrap;rounded=0;" parent="1" vertex="1">
          <mxGeometry x="164" y="698" width="61" height="10" as="geometry" />
        </mxCell>
        <mxCell id="4Q71xVZbWHCX4HzjCJ2O-65" value="&lt;font style=&quot;font-size: 7px;&quot;&gt;issue_b_ra_idx_w[4:0]&lt;/font&gt;" style="text;strokeColor=none;align=center;fillColor=none;html=1;verticalAlign=middle;whiteSpace=wrap;rounded=0;" parent="1" vertex="1">
          <mxGeometry x="160.34999999999997" y="378" width="80" height="10" as="geometry" />
        </mxCell>
        <mxCell id="4Q71xVZbWHCX4HzjCJ2O-67" value="&lt;font style=&quot;font-size: 7px;&quot;&gt;issue_b_rb_idx_w[4:0]&lt;/font&gt;" style="text;strokeColor=none;align=center;fillColor=none;html=1;verticalAlign=middle;whiteSpace=wrap;rounded=0;" parent="1" vertex="1">
          <mxGeometry x="161.34999999999997" y="398" width="80" height="10" as="geometry" />
        </mxCell>
        <mxCell id="4Q71xVZbWHCX4HzjCJ2O-69" value="&lt;font style=&quot;font-size: 7px;&quot;&gt;issue_b_rd_idx_w[4:0]&lt;/font&gt;" style="text;strokeColor=none;align=center;fillColor=none;html=1;verticalAlign=middle;whiteSpace=wrap;rounded=0;" parent="1" vertex="1">
          <mxGeometry x="167" y="557.86" width="68.2" height="10" as="geometry" />
        </mxCell>
        <mxCell id="4Q71xVZbWHCX4HzjCJ2O-70" value="" style="endArrow=classic;html=1;rounded=0;" parent="1" edge="1">
          <mxGeometry width="50" height="50" relative="1" as="geometry">
            <mxPoint x="160" y="590" as="sourcePoint" />
            <mxPoint x="390" y="590" as="targetPoint" />
            <Array as="points" />
          </mxGeometry>
        </mxCell>
        <mxCell id="4Q71xVZbWHCX4HzjCJ2O-71" value="&lt;font style=&quot;font-size: 7px;&quot;&gt;issue_b_sb_alloc_w&lt;/font&gt;" style="text;strokeColor=none;align=center;fillColor=none;html=1;verticalAlign=middle;whiteSpace=wrap;rounded=0;" parent="1" vertex="1">
          <mxGeometry x="164" y="578" width="68.2" height="10" as="geometry" />
        </mxCell>
        <mxCell id="4Q71xVZbWHCX4HzjCJ2O-72" value="" style="endArrow=classic;html=1;rounded=0;" parent="1" edge="1">
          <mxGeometry width="50" height="50" relative="1" as="geometry">
            <mxPoint x="160" y="610" as="sourcePoint" />
            <mxPoint x="390" y="610" as="targetPoint" />
            <Array as="points" />
          </mxGeometry>
        </mxCell>
        <mxCell id="4Q71xVZbWHCX4HzjCJ2O-73" value="&lt;font style=&quot;font-size: 7px;&quot;&gt;issue_b_exec_w&lt;/font&gt;" style="text;strokeColor=none;align=center;fillColor=none;html=1;verticalAlign=middle;whiteSpace=wrap;rounded=0;" parent="1" vertex="1">
          <mxGeometry x="163" y="598" width="58.2" height="10" as="geometry" />
        </mxCell>
        <mxCell id="4Q71xVZbWHCX4HzjCJ2O-74" value="" style="endArrow=classic;html=1;rounded=0;" parent="1" edge="1">
          <mxGeometry width="50" height="50" relative="1" as="geometry">
            <mxPoint x="160" y="630" as="sourcePoint" />
            <mxPoint x="390" y="630" as="targetPoint" />
            <Array as="points" />
          </mxGeometry>
        </mxCell>
        <mxCell id="4Q71xVZbWHCX4HzjCJ2O-75" value="&lt;font style=&quot;font-size: 7px;&quot;&gt;issue_b_lsu_w&lt;/font&gt;" style="text;strokeColor=none;align=center;fillColor=none;html=1;verticalAlign=middle;whiteSpace=wrap;rounded=0;" parent="1" vertex="1">
          <mxGeometry x="165" y="618" width="48.2" height="10" as="geometry" />
        </mxCell>
        <mxCell id="4Q71xVZbWHCX4HzjCJ2O-76" value="" style="endArrow=classic;html=1;rounded=0;" parent="1" edge="1">
          <mxGeometry width="50" height="50" relative="1" as="geometry">
            <mxPoint x="160" y="650" as="sourcePoint" />
            <mxPoint x="390" y="650" as="targetPoint" />
          </mxGeometry>
        </mxCell>
        <mxCell id="4Q71xVZbWHCX4HzjCJ2O-77" value="&lt;font style=&quot;font-size: 7px;&quot;&gt;issue_b_branch_w&lt;/font&gt;" style="text;strokeColor=none;align=center;fillColor=none;html=1;verticalAlign=middle;whiteSpace=wrap;rounded=0;" parent="1" vertex="1">
          <mxGeometry x="166" y="638" width="58.2" height="10" as="geometry" />
        </mxCell>
        <mxCell id="4Q71xVZbWHCX4HzjCJ2O-78" value="" style="endArrow=classic;html=1;rounded=0;" parent="1" edge="1">
          <mxGeometry width="50" height="50" relative="1" as="geometry">
            <mxPoint x="160" y="670" as="sourcePoint" />
            <mxPoint x="390" y="670" as="targetPoint" />
          </mxGeometry>
        </mxCell>
        <mxCell id="4Q71xVZbWHCX4HzjCJ2O-79" value="&lt;font style=&quot;font-size: 7px;&quot;&gt;issue_b_mul_w&lt;/font&gt;" style="text;strokeColor=none;align=center;fillColor=none;html=1;verticalAlign=middle;whiteSpace=wrap;rounded=0;" parent="1" vertex="1">
          <mxGeometry x="162" y="658" width="56.2" height="10" as="geometry" />
        </mxCell>
        <mxCell id="4Q71xVZbWHCX4HzjCJ2O-80" value="" style="endArrow=none;html=1;rounded=0;endFill=0;" parent="1" edge="1">
          <mxGeometry width="50" height="50" relative="1" as="geometry">
            <mxPoint x="160" y="730" as="sourcePoint" />
            <mxPoint x="230" y="730" as="targetPoint" />
          </mxGeometry>
        </mxCell>
        <mxCell id="4Q71xVZbWHCX4HzjCJ2O-81" value="&lt;font style=&quot;font-size: 7px;&quot;&gt;issue_b_div_w&lt;/font&gt;" style="text;strokeColor=none;align=center;fillColor=none;html=1;verticalAlign=middle;whiteSpace=wrap;rounded=0;" parent="1" vertex="1">
          <mxGeometry x="165" y="718" width="48.2" height="10" as="geometry" />
        </mxCell>
        <mxCell id="4Q71xVZbWHCX4HzjCJ2O-82" value="" style="endArrow=none;html=1;rounded=0;endFill=0;" parent="1" edge="1">
          <mxGeometry width="50" height="50" relative="1" as="geometry">
            <mxPoint x="160" y="770" as="sourcePoint" />
            <mxPoint x="230" y="770" as="targetPoint" />
          </mxGeometry>
        </mxCell>
        <mxCell id="4Q71xVZbWHCX4HzjCJ2O-83" value="&lt;font style=&quot;font-size: 7px;&quot;&gt;issue_b_invalid_w&lt;/font&gt;" style="text;strokeColor=none;align=center;fillColor=none;html=1;verticalAlign=middle;whiteSpace=wrap;rounded=0;" parent="1" vertex="1">
          <mxGeometry x="166" y="757" width="57" height="10" as="geometry" />
        </mxCell>
        <mxCell id="SvG3vRPbVIv2HBja2-ag-5" value="&lt;font style=&quot;font-size: 7px;&quot;&gt;issue_a_csr_w&lt;/font&gt;" style="text;strokeColor=none;align=center;fillColor=none;html=1;verticalAlign=middle;whiteSpace=wrap;rounded=0;" parent="1" vertex="1">
          <mxGeometry x="164" y="537.72" width="51" height="10" as="geometry" />
        </mxCell>
        <mxCell id="SvG3vRPbVIv2HBja2-ag-6" value="" style="endArrow=none;html=1;rounded=0;endFill=0;" parent="1" edge="1">
          <mxGeometry width="50" height="50" relative="1" as="geometry">
            <mxPoint x="160" y="750" as="sourcePoint" />
            <mxPoint x="230" y="750" as="targetPoint" />
          </mxGeometry>
        </mxCell>
        <mxCell id="SvG3vRPbVIv2HBja2-ag-7" value="&lt;font style=&quot;font-size: 7px;&quot;&gt;issue_b_csr_w&lt;/font&gt;" style="text;strokeColor=none;align=center;fillColor=none;html=1;verticalAlign=middle;whiteSpace=wrap;rounded=0;" parent="1" vertex="1">
          <mxGeometry x="164" y="737.95" width="50" height="10" as="geometry" />
        </mxCell>
        <mxCell id="K7g2_0EFvP5018YAS0_h-12" value="" style="endArrow=classic;html=1;rounded=0;" parent="1" edge="1">
          <mxGeometry width="50" height="50" relative="1" as="geometry">
            <mxPoint x="157.35" y="159.17000000000002" as="sourcePoint" />
            <mxPoint x="237.35" y="159.17000000000002" as="targetPoint" />
            <Array as="points" />
          </mxGeometry>
        </mxCell>
        <mxCell id="K7g2_0EFvP5018YAS0_h-13" value="" style="endArrow=classic;html=1;rounded=0;" parent="1" edge="1">
          <mxGeometry width="50" height="50" relative="1" as="geometry">
            <mxPoint x="157.35" y="139.17000000000002" as="sourcePoint" />
            <mxPoint x="237.35" y="139.17000000000002" as="targetPoint" />
            <Array as="points" />
          </mxGeometry>
        </mxCell>
        <mxCell id="K7g2_0EFvP5018YAS0_h-27" value="" style="endArrow=classic;html=1;rounded=0;" parent="1" edge="1">
          <mxGeometry width="50" height="50" relative="1" as="geometry">
            <mxPoint x="160" y="390" as="sourcePoint" />
            <mxPoint x="390" y="390" as="targetPoint" />
            <Array as="points" />
          </mxGeometry>
        </mxCell>
        <mxCell id="K7g2_0EFvP5018YAS0_h-28" value="" style="endArrow=classic;html=1;rounded=0;" parent="1" edge="1">
          <mxGeometry width="50" height="50" relative="1" as="geometry">
            <mxPoint x="160" y="410" as="sourcePoint" />
            <mxPoint x="390" y="410" as="targetPoint" />
            <Array as="points" />
          </mxGeometry>
        </mxCell>
        <mxCell id="K7g2_0EFvP5018YAS0_h-29" value="" style="endArrow=classic;html=1;rounded=0;" parent="1" edge="1">
          <mxGeometry width="50" height="50" relative="1" as="geometry">
            <mxPoint x="160" y="570" as="sourcePoint" />
            <mxPoint x="390" y="570" as="targetPoint" />
            <Array as="points" />
          </mxGeometry>
        </mxCell>
        <mxCell id="K7g2_0EFvP5018YAS0_h-30" value="" style="endArrow=classic;html=1;rounded=0;" parent="1" edge="1">
          <mxGeometry width="50" height="50" relative="1" as="geometry">
            <mxPoint x="160" y="510" as="sourcePoint" />
            <mxPoint x="390" y="510" as="targetPoint" />
            <Array as="points" />
          </mxGeometry>
        </mxCell>
        <mxCell id="K7g2_0EFvP5018YAS0_h-31" value="" style="endArrow=classic;html=1;rounded=0;" parent="1" edge="1">
          <mxGeometry width="50" height="50" relative="1" as="geometry">
            <mxPoint x="160" y="530" as="sourcePoint" />
            <mxPoint x="390" y="530" as="targetPoint" />
            <Array as="points" />
          </mxGeometry>
        </mxCell>
        <mxCell id="K7g2_0EFvP5018YAS0_h-32" value="" style="endArrow=classic;html=1;rounded=0;" parent="1" edge="1">
          <mxGeometry width="50" height="50" relative="1" as="geometry">
            <mxPoint x="160" y="550" as="sourcePoint" />
            <mxPoint x="390" y="550" as="targetPoint" />
            <Array as="points" />
          </mxGeometry>
        </mxCell>
        <mxCell id="K7g2_0EFvP5018YAS0_h-33" value="" style="endArrow=classic;html=1;rounded=0;" parent="1" edge="1">
          <mxGeometry width="50" height="50" relative="1" as="geometry">
            <mxPoint x="160" y="430" as="sourcePoint" />
            <mxPoint x="390" y="430" as="targetPoint" />
          </mxGeometry>
        </mxCell>
        <mxCell id="K7g2_0EFvP5018YAS0_h-34" value="" style="endArrow=classic;html=1;rounded=0;" parent="1" edge="1">
          <mxGeometry width="50" height="50" relative="1" as="geometry">
            <mxPoint x="160" y="450" as="sourcePoint" />
            <mxPoint x="390" y="450" as="targetPoint" />
            <Array as="points" />
          </mxGeometry>
        </mxCell>
        <mxCell id="K7g2_0EFvP5018YAS0_h-35" value="" style="endArrow=classic;html=1;rounded=0;" parent="1" edge="1">
          <mxGeometry width="50" height="50" relative="1" as="geometry">
            <mxPoint x="160" y="470" as="sourcePoint" />
            <mxPoint x="390" y="470" as="targetPoint" />
            <Array as="points" />
          </mxGeometry>
        </mxCell>
        <mxCell id="K7g2_0EFvP5018YAS0_h-36" value="" style="endArrow=classic;html=1;rounded=0;" parent="1" edge="1">
          <mxGeometry width="50" height="50" relative="1" as="geometry">
            <mxPoint x="160" y="490" as="sourcePoint" />
            <mxPoint x="390" y="490" as="targetPoint" />
            <Array as="points" />
          </mxGeometry>
        </mxCell>
        <mxCell id="K7g2_0EFvP5018YAS0_h-37" value="" style="endArrow=classic;html=1;rounded=0;" parent="1" edge="1">
          <mxGeometry width="50" height="50" relative="1" as="geometry">
            <mxPoint x="160" y="350" as="sourcePoint" />
            <mxPoint x="390" y="350" as="targetPoint" />
          </mxGeometry>
        </mxCell>
        <mxCell id="K7g2_0EFvP5018YAS0_h-38" value="" style="endArrow=classic;html=1;rounded=0;" parent="1" edge="1">
          <mxGeometry width="50" height="50" relative="1" as="geometry">
            <mxPoint x="160" y="370" as="sourcePoint" />
            <mxPoint x="390" y="370" as="targetPoint" />
            <Array as="points" />
          </mxGeometry>
        </mxCell>
        <mxCell id="K7g2_0EFvP5018YAS0_h-41" value="&lt;font style=&quot;font-size: 7px;&quot;&gt;issue_a_branch_w&lt;/font&gt;" style="text;strokeColor=none;align=center;fillColor=none;html=1;verticalAlign=middle;whiteSpace=wrap;rounded=0;" parent="1" vertex="1">
          <mxGeometry x="164" y="678" width="60.7" height="10" as="geometry" />
        </mxCell>
        <mxCell id="K7g2_0EFvP5018YAS0_h-43" value="" style="endArrow=classic;html=1;rounded=0;entryX=0.001;entryY=0.552;entryDx=0;entryDy=0;entryPerimeter=0;" parent="1" target="CH4vfQJ2e6H9l5YuJAfh-225" edge="1">
          <mxGeometry width="50" height="50" relative="1" as="geometry">
            <mxPoint x="350" y="350" as="sourcePoint" />
            <mxPoint x="450" y="160" as="targetPoint" />
            <Array as="points">
              <mxPoint x="350" y="160" />
            </Array>
          </mxGeometry>
        </mxCell>
        <mxCell id="K7g2_0EFvP5018YAS0_h-44" value="" style="endArrow=classic;html=1;rounded=0;entryX=-0.001;entryY=0.669;entryDx=0;entryDy=0;entryPerimeter=0;" parent="1" target="CH4vfQJ2e6H9l5YuJAfh-225" edge="1">
          <mxGeometry width="50" height="50" relative="1" as="geometry">
            <mxPoint x="360" y="370" as="sourcePoint" />
            <mxPoint x="450" y="180" as="targetPoint" />
            <Array as="points">
              <mxPoint x="360" y="180" />
            </Array>
          </mxGeometry>
        </mxCell>
        <mxCell id="K7g2_0EFvP5018YAS0_h-45" value="" style="endArrow=classic;html=1;rounded=0;entryX=0.001;entryY=0.788;entryDx=0;entryDy=0;entryPerimeter=0;" parent="1" target="CH4vfQJ2e6H9l5YuJAfh-225" edge="1">
          <mxGeometry width="50" height="50" relative="1" as="geometry">
            <mxPoint x="370" y="390" as="sourcePoint" />
            <mxPoint x="450" y="200" as="targetPoint" />
            <Array as="points">
              <mxPoint x="370" y="200" />
            </Array>
          </mxGeometry>
        </mxCell>
        <mxCell id="K7g2_0EFvP5018YAS0_h-46" value="" style="endArrow=classic;html=1;rounded=0;entryX=-0.001;entryY=0.906;entryDx=0;entryDy=0;entryPerimeter=0;" parent="1" target="CH4vfQJ2e6H9l5YuJAfh-225" edge="1">
          <mxGeometry width="50" height="50" relative="1" as="geometry">
            <mxPoint x="380" y="410" as="sourcePoint" />
            <mxPoint x="450" y="220" as="targetPoint" />
            <Array as="points">
              <mxPoint x="380" y="220" />
            </Array>
          </mxGeometry>
        </mxCell>
        <mxCell id="K7g2_0EFvP5018YAS0_h-47" value="" style="endArrow=classic;html=1;rounded=0;exitX=0.108;exitY=1.016;exitDx=0;exitDy=0;exitPerimeter=0;entryX=0;entryY=0.433;entryDx=0;entryDy=0;entryPerimeter=0;" parent="1" target="CH4vfQJ2e6H9l5YuJAfh-225" edge="1">
          <mxGeometry width="50" height="50" relative="1" as="geometry">
            <mxPoint x="349.97760000000005" y="45.29599999999999" as="sourcePoint" />
            <mxPoint x="450" y="140" as="targetPoint" />
            <Array as="points">
              <mxPoint x="350" y="140" />
            </Array>
          </mxGeometry>
        </mxCell>
        <mxCell id="K7g2_0EFvP5018YAS0_h-48" value="&lt;font style=&quot;font-size: 7px;&quot;&gt;issue_a_ra_idx_w[4:0]&lt;/font&gt;" style="text;strokeColor=none;align=center;fillColor=none;html=1;verticalAlign=middle;whiteSpace=wrap;rounded=0;" parent="1" vertex="1">
          <mxGeometry x="369" y="147.82999999999998" width="80" height="10" as="geometry" />
        </mxCell>
        <mxCell id="K7g2_0EFvP5018YAS0_h-49" value="&lt;font style=&quot;font-size: 7px;&quot;&gt;issue_a_rb_idx_w[4:0]&lt;/font&gt;" style="text;strokeColor=none;align=center;fillColor=none;html=1;verticalAlign=middle;whiteSpace=wrap;rounded=0;" parent="1" vertex="1">
          <mxGeometry x="369" y="168" width="80" height="10" as="geometry" />
        </mxCell>
        <mxCell id="K7g2_0EFvP5018YAS0_h-50" value="&lt;font style=&quot;font-size: 7px;&quot;&gt;issue_b_ra_idx_w[4:0]&lt;/font&gt;" style="text;strokeColor=none;align=center;fillColor=none;html=1;verticalAlign=middle;whiteSpace=wrap;rounded=0;" parent="1" vertex="1">
          <mxGeometry x="369" y="188" width="80" height="10" as="geometry" />
        </mxCell>
        <mxCell id="K7g2_0EFvP5018YAS0_h-51" value="&lt;font style=&quot;font-size: 7px;&quot;&gt;issue_b_rb_idx_w[4:0]&lt;/font&gt;" style="text;strokeColor=none;align=center;fillColor=none;html=1;verticalAlign=middle;whiteSpace=wrap;rounded=0;" parent="1" vertex="1">
          <mxGeometry x="370" y="207.83" width="80" height="10" as="geometry" />
        </mxCell>
        <mxCell id="K7g2_0EFvP5018YAS0_h-52" value="&lt;span style=&quot;font-size: 7px;&quot;&gt;pipe1_result_wb_w&lt;/span&gt;" style="text;strokeColor=none;align=center;fillColor=none;html=1;verticalAlign=middle;whiteSpace=wrap;rounded=0;" parent="1" vertex="1">
          <mxGeometry x="380.5" y="128" width="65" height="10" as="geometry" />
        </mxCell>
        <mxCell id="K7g2_0EFvP5018YAS0_h-53" value="" style="endArrow=classic;html=1;rounded=0;exitX=0.12;exitY=1.02;exitDx=0;exitDy=0;exitPerimeter=0;entryX=0.004;entryY=0.315;entryDx=0;entryDy=0;entryPerimeter=0;" parent="1" target="CH4vfQJ2e6H9l5YuJAfh-225" edge="1">
          <mxGeometry width="50" height="50" relative="1" as="geometry">
            <mxPoint x="359.664" y="45.370000000000005" as="sourcePoint" />
            <mxPoint x="450" y="120" as="targetPoint" />
            <Array as="points">
              <mxPoint x="360" y="120" />
            </Array>
          </mxGeometry>
        </mxCell>
        <mxCell id="K7g2_0EFvP5018YAS0_h-54" value="&lt;span style=&quot;font-size: 7px;&quot;&gt;pipe1_rd_wb_w&lt;/span&gt;" style="text;strokeColor=none;align=center;fillColor=none;html=1;verticalAlign=middle;whiteSpace=wrap;rounded=0;" parent="1" vertex="1">
          <mxGeometry x="391.5" y="108" width="55" height="10" as="geometry" />
        </mxCell>
        <mxCell id="K7g2_0EFvP5018YAS0_h-55" value="" style="endArrow=classic;html=1;rounded=0;exitX=0.133;exitY=1;exitDx=0;exitDy=0;exitPerimeter=0;entryX=0.003;entryY=0.199;entryDx=0;entryDy=0;entryPerimeter=0;" parent="1" target="CH4vfQJ2e6H9l5YuJAfh-225" edge="1">
          <mxGeometry width="50" height="50" relative="1" as="geometry">
            <mxPoint x="370.1576" y="45" as="sourcePoint" />
            <mxPoint x="450" y="100" as="targetPoint" />
            <Array as="points">
              <mxPoint x="370" y="100" />
            </Array>
          </mxGeometry>
        </mxCell>
        <mxCell id="K7g2_0EFvP5018YAS0_h-56" value="&lt;span style=&quot;font-size: 7px;&quot;&gt;pipe0_result_wb_w&lt;/span&gt;" style="text;strokeColor=none;align=center;fillColor=none;html=1;verticalAlign=middle;whiteSpace=wrap;rounded=0;" parent="1" vertex="1">
          <mxGeometry x="381.5" y="88" width="65" height="10" as="geometry" />
        </mxCell>
        <mxCell id="K7g2_0EFvP5018YAS0_h-57" value="" style="endArrow=classic;html=1;rounded=0;exitX=0.145;exitY=0.964;exitDx=0;exitDy=0;exitPerimeter=0;entryX=0.004;entryY=0.08;entryDx=0;entryDy=0;entryPerimeter=0;" parent="1" target="CH4vfQJ2e6H9l5YuJAfh-225" edge="1">
          <mxGeometry width="50" height="50" relative="1" as="geometry">
            <mxPoint x="379.84399999999994" y="44.334" as="sourcePoint" />
            <mxPoint x="450" y="80" as="targetPoint" />
            <Array as="points">
              <mxPoint x="380" y="80" />
            </Array>
          </mxGeometry>
        </mxCell>
        <mxCell id="K7g2_0EFvP5018YAS0_h-58" value="&lt;span style=&quot;font-size: 7px;&quot;&gt;pipe0_rd_wb_w&lt;/span&gt;" style="text;strokeColor=none;align=center;fillColor=none;html=1;verticalAlign=middle;whiteSpace=wrap;rounded=0;" parent="1" vertex="1">
          <mxGeometry x="392" y="68.29" width="55" height="10" as="geometry" />
        </mxCell>
        <mxCell id="K7g2_0EFvP5018YAS0_h-59" value="" style="endArrow=classic;html=1;rounded=0;entryX=0.001;entryY=0.719;entryDx=0;entryDy=0;entryPerimeter=0;" parent="1" edge="1">
          <mxGeometry width="50" height="50" relative="1" as="geometry">
            <mxPoint x="510" y="180" as="sourcePoint" />
            <mxPoint x="807.0630000000001" y="499.94000000000005" as="targetPoint" />
            <Array as="points">
              <mxPoint x="610" y="180" />
              <mxPoint x="610" y="400" />
              <mxPoint x="660" y="400" />
              <mxPoint x="660" y="500" />
            </Array>
          </mxGeometry>
        </mxCell>
        <mxCell id="K7g2_0EFvP5018YAS0_h-60" value="&lt;span style=&quot;font-size: 7px;&quot;&gt;issue_b_rb_value_w[31:0]&lt;/span&gt;" style="text;strokeColor=none;align=center;fillColor=none;html=1;verticalAlign=middle;whiteSpace=wrap;rounded=0;" parent="1" vertex="1">
          <mxGeometry x="517.5" y="167.66" width="85.5" height="10" as="geometry" />
        </mxCell>
        <mxCell id="K7g2_0EFvP5018YAS0_h-62" value="&lt;span style=&quot;font-size: 7px;&quot;&gt;issue_b_ra_value_w[31:0]&lt;/span&gt;" style="text;strokeColor=none;align=center;fillColor=none;html=1;verticalAlign=middle;whiteSpace=wrap;rounded=0;" parent="1" vertex="1">
          <mxGeometry x="518.5" y="147.83" width="80.5" height="10" as="geometry" />
        </mxCell>
        <mxCell id="K7g2_0EFvP5018YAS0_h-63" value="" style="endArrow=classic;html=1;rounded=0;entryX=0.001;entryY=0.578;entryDx=0;entryDy=0;entryPerimeter=0;" parent="1" edge="1" target="CH4vfQJ2e6H9l5YuJAfh-243">
          <mxGeometry width="50" height="50" relative="1" as="geometry">
            <mxPoint x="510" y="100" as="sourcePoint" />
            <mxPoint x="807" y="220" as="targetPoint" />
            <Array as="points">
              <mxPoint x="650" y="100" />
              <mxPoint x="650" y="200" />
            </Array>
          </mxGeometry>
        </mxCell>
        <mxCell id="K7g2_0EFvP5018YAS0_h-64" value="&lt;span style=&quot;font-size: 7px;&quot;&gt;issue_a_rb_value_w[31:0]&lt;/span&gt;" style="text;strokeColor=none;align=center;fillColor=none;html=1;verticalAlign=middle;whiteSpace=wrap;rounded=0;" parent="1" vertex="1">
          <mxGeometry x="517.25" y="88" width="87.75" height="10" as="geometry" />
        </mxCell>
        <mxCell id="K7g2_0EFvP5018YAS0_h-65" value="" style="endArrow=classic;html=1;rounded=0;entryX=0;entryY=0.5;entryDx=0;entryDy=0;" parent="1" edge="1" target="CH4vfQJ2e6H9l5YuJAfh-243">
          <mxGeometry width="50" height="50" relative="1" as="geometry">
            <mxPoint x="510" y="80" as="sourcePoint" />
            <mxPoint x="807" y="200" as="targetPoint" />
            <Array as="points">
              <mxPoint x="660" y="80" />
              <mxPoint x="660" y="180" />
            </Array>
          </mxGeometry>
        </mxCell>
        <mxCell id="K7g2_0EFvP5018YAS0_h-66" value="&lt;span style=&quot;font-size: 7px;&quot;&gt;issue_a_ra_value_w[31:0]&lt;/span&gt;" style="text;strokeColor=none;align=center;fillColor=none;html=1;verticalAlign=middle;whiteSpace=wrap;rounded=0;" parent="1" vertex="1">
          <mxGeometry x="517.25" y="68.29" width="87.75" height="10" as="geometry" />
        </mxCell>
        <mxCell id="CH4vfQJ2e6H9l5YuJAfh-10" value="" style="endArrow=classic;html=1;rounded=0;" parent="1" edge="1">
          <mxGeometry width="50" height="50" relative="1" as="geometry">
            <mxPoint x="260" y="190" as="sourcePoint" />
            <mxPoint x="110" y="260" as="targetPoint" />
            <Array as="points">
              <mxPoint x="260" y="210" />
              <mxPoint x="40" y="210" />
              <mxPoint x="40" y="260" />
            </Array>
          </mxGeometry>
        </mxCell>
        <mxCell id="CH4vfQJ2e6H9l5YuJAfh-11" value="" style="endArrow=classic;html=1;rounded=0;exitX=0.32;exitY=1;exitDx=0;exitDy=0;exitPerimeter=0;" parent="1" edge="1">
          <mxGeometry width="50" height="50" relative="1" as="geometry">
            <mxPoint x="249.87800000000004" y="189.49999999999994" as="sourcePoint" />
            <mxPoint x="110" y="280" as="targetPoint" />
            <Array as="points">
              <mxPoint x="250" y="200" />
              <mxPoint x="30" y="200" />
              <mxPoint x="30" y="280" />
            </Array>
          </mxGeometry>
        </mxCell>
        <mxCell id="CH4vfQJ2e6H9l5YuJAfh-15" value="" style="endArrow=classic;html=1;rounded=0;exitX=1.006;exitY=0.167;exitDx=0;exitDy=0;exitPerimeter=0;entryX=-0.009;entryY=0.105;entryDx=0;entryDy=0;entryPerimeter=0;" parent="1" edge="1" target="mu9b0w2JKODKvYEpF6Kd-7" source="CH4vfQJ2e6H9l5YuJAfh-208">
          <mxGeometry width="50" height="50" relative="1" as="geometry">
            <mxPoint x="160.35" y="329" as="sourcePoint" />
            <mxPoint x="800" y="340" as="targetPoint" />
            <Array as="points">
              <mxPoint x="460" y="330" />
              <mxPoint x="460" y="340" />
            </Array>
          </mxGeometry>
        </mxCell>
        <mxCell id="CH4vfQJ2e6H9l5YuJAfh-16" value="&lt;font style=&quot;font-size: 7px;&quot;&gt;opcode_b_pc_r[31:0]&lt;/font&gt;" style="text;strokeColor=none;align=center;fillColor=none;html=1;verticalAlign=middle;whiteSpace=wrap;rounded=0;" parent="1" vertex="1">
          <mxGeometry x="163.39999999999998" y="318" width="71.6" height="10" as="geometry" />
        </mxCell>
        <mxCell id="CH4vfQJ2e6H9l5YuJAfh-17" value="" style="endArrow=classic;html=1;rounded=0;exitX=1.002;exitY=0.13;exitDx=0;exitDy=0;exitPerimeter=0;entryX=-0.003;entryY=0.027;entryDx=0;entryDy=0;entryPerimeter=0;" parent="1" edge="1" target="mu9b0w2JKODKvYEpF6Kd-7" source="CH4vfQJ2e6H9l5YuJAfh-208">
          <mxGeometry width="50" height="50" relative="1" as="geometry">
            <mxPoint x="160" y="310" as="sourcePoint" />
            <mxPoint x="800" y="320" as="targetPoint" />
            <Array as="points">
              <mxPoint x="460" y="310" />
              <mxPoint x="460" y="320" />
            </Array>
          </mxGeometry>
        </mxCell>
        <mxCell id="CH4vfQJ2e6H9l5YuJAfh-18" value="&lt;font style=&quot;font-size: 7px;&quot;&gt;opcode_b_r[31:0]&lt;/font&gt;" style="text;strokeColor=none;align=center;fillColor=none;html=1;verticalAlign=middle;whiteSpace=wrap;rounded=0;" parent="1" vertex="1">
          <mxGeometry x="162.2" y="298" width="61.8" height="10" as="geometry" />
        </mxCell>
        <mxCell id="CH4vfQJ2e6H9l5YuJAfh-20" value="" style="endArrow=classic;html=1;rounded=0;entryX=-0.002;entryY=0.85;entryDx=0;entryDy=0;entryPerimeter=0;exitX=1.001;exitY=0.056;exitDx=0;exitDy=0;exitPerimeter=0;" parent="1" target="CH4vfQJ2e6H9l5YuJAfh-243" edge="1" source="CH4vfQJ2e6H9l5YuJAfh-208">
          <mxGeometry width="50" height="50" relative="1" as="geometry">
            <mxPoint x="160" y="270" as="sourcePoint" />
            <mxPoint x="806.6999999999999" y="270.13770000000005" as="targetPoint" />
            <Array as="points" />
          </mxGeometry>
        </mxCell>
        <mxCell id="CH4vfQJ2e6H9l5YuJAfh-21" value="&lt;font style=&quot;font-size: 7px;&quot;&gt;opcode_a_pc_r[31:0]&lt;/font&gt;" style="text;strokeColor=none;align=center;fillColor=none;html=1;verticalAlign=middle;whiteSpace=wrap;rounded=0;" parent="1" vertex="1">
          <mxGeometry x="167.2" y="278" width="63.8" height="10" as="geometry" />
        </mxCell>
        <mxCell id="CH4vfQJ2e6H9l5YuJAfh-22" value="&lt;font style=&quot;font-size: 7px;&quot;&gt;opcode_a_r[31:0]&lt;/font&gt;" style="text;strokeColor=none;align=center;fillColor=none;html=1;verticalAlign=middle;whiteSpace=wrap;rounded=0;" parent="1" vertex="1">
          <mxGeometry x="172.39999999999998" y="259" width="41.8" height="10" as="geometry" />
        </mxCell>
        <mxCell id="CH4vfQJ2e6H9l5YuJAfh-29" value="" style="endArrow=classic;html=1;rounded=0;entryX=-0.002;entryY=0.656;entryDx=0;entryDy=0;entryPerimeter=0;" parent="1" edge="1" target="CH4vfQJ2e6H9l5YuJAfh-243">
          <mxGeometry width="50" height="50" relative="1" as="geometry">
            <mxPoint x="510" y="120" as="sourcePoint" />
            <mxPoint x="807" y="240" as="targetPoint" />
            <Array as="points">
              <mxPoint x="640" y="120" />
              <mxPoint x="640" y="220" />
            </Array>
          </mxGeometry>
        </mxCell>
        <mxCell id="CH4vfQJ2e6H9l5YuJAfh-30" value="&lt;font style=&quot;font-size: 7px;&quot;&gt;issue_a_ra_idx_w[4:0]&lt;/font&gt;" style="text;strokeColor=none;align=center;fillColor=none;html=1;verticalAlign=middle;whiteSpace=wrap;rounded=0;" parent="1" vertex="1">
          <mxGeometry x="515" y="108" width="80" height="10" as="geometry" />
        </mxCell>
        <mxCell id="CH4vfQJ2e6H9l5YuJAfh-31" value="" style="endArrow=classic;html=1;rounded=0;entryX=-0.008;entryY=0.734;entryDx=0;entryDy=0;entryPerimeter=0;" parent="1" edge="1" target="CH4vfQJ2e6H9l5YuJAfh-243">
          <mxGeometry width="50" height="50" relative="1" as="geometry">
            <mxPoint x="510" y="140" as="sourcePoint" />
            <mxPoint x="807" y="260" as="targetPoint" />
            <Array as="points">
              <mxPoint x="630" y="140" />
              <mxPoint x="630" y="240" />
            </Array>
          </mxGeometry>
        </mxCell>
        <mxCell id="CH4vfQJ2e6H9l5YuJAfh-32" value="&lt;font style=&quot;font-size: 7px;&quot;&gt;issue_a_rb_idx_w[4:0]&lt;/font&gt;" style="text;strokeColor=none;align=center;fillColor=none;html=1;verticalAlign=middle;whiteSpace=wrap;rounded=0;" parent="1" vertex="1">
          <mxGeometry x="514" y="126.82999999999998" width="80" height="10" as="geometry" />
        </mxCell>
        <mxCell id="CH4vfQJ2e6H9l5YuJAfh-34" value="" style="endArrow=classic;html=1;rounded=0;entryX=0.001;entryY=0.641;entryDx=0;entryDy=0;entryPerimeter=0;" parent="1" edge="1">
          <mxGeometry width="50" height="50" relative="1" as="geometry">
            <mxPoint x="510" y="160" as="sourcePoint" />
            <mxPoint x="807.0630000000001" y="479.65999999999985" as="targetPoint" />
            <Array as="points">
              <mxPoint x="620" y="160" />
              <mxPoint x="620" y="390" />
              <mxPoint x="670" y="390" />
              <mxPoint x="670" y="480" />
            </Array>
          </mxGeometry>
        </mxCell>
        <mxCell id="CH4vfQJ2e6H9l5YuJAfh-35" value="" style="endArrow=classic;html=1;rounded=0;entryX=-0.003;entryY=0.872;entryDx=0;entryDy=0;entryPerimeter=0;" parent="1" edge="1">
          <mxGeometry width="50" height="50" relative="1" as="geometry">
            <mxPoint x="510" y="220" as="sourcePoint" />
            <mxPoint x="806.8109999999997" y="539.72" as="targetPoint" />
            <Array as="points">
              <mxPoint x="590" y="220" />
              <mxPoint x="590" y="420" />
              <mxPoint x="640" y="420" />
              <mxPoint x="640" y="540" />
            </Array>
          </mxGeometry>
        </mxCell>
        <mxCell id="CH4vfQJ2e6H9l5YuJAfh-38" value="" style="endArrow=classic;html=1;rounded=0;entryX=0.005;entryY=0.797;entryDx=0;entryDy=0;entryPerimeter=0;" parent="1" edge="1">
          <mxGeometry width="50" height="50" relative="1" as="geometry">
            <mxPoint x="510" y="200" as="sourcePoint" />
            <mxPoint x="807.315" y="520.22" as="targetPoint" />
            <Array as="points">
              <mxPoint x="600" y="200" />
              <mxPoint x="600" y="410" />
              <mxPoint x="650" y="410" />
              <mxPoint x="650" y="520" />
            </Array>
          </mxGeometry>
        </mxCell>
        <mxCell id="CH4vfQJ2e6H9l5YuJAfh-39" value="&lt;font style=&quot;font-size: 7px;&quot;&gt;issue_b_ra_idx_w[4:0]&lt;/font&gt;" style="text;strokeColor=none;align=center;fillColor=none;html=1;verticalAlign=middle;whiteSpace=wrap;rounded=0;" parent="1" vertex="1">
          <mxGeometry x="515" y="187" width="80" height="10" as="geometry" />
        </mxCell>
        <mxCell id="CH4vfQJ2e6H9l5YuJAfh-40" value="&lt;font style=&quot;font-size: 7px;&quot;&gt;issue_b_rb_idx_w[4:0]&lt;/font&gt;" style="text;strokeColor=none;align=center;fillColor=none;html=1;verticalAlign=middle;whiteSpace=wrap;rounded=0;" parent="1" vertex="1">
          <mxGeometry x="515" y="207.83" width="80" height="10" as="geometry" />
        </mxCell>
        <mxCell id="CH4vfQJ2e6H9l5YuJAfh-41" value="" style="endArrow=classic;html=1;rounded=0;exitX=0.575;exitY=1.003;exitDx=0;exitDy=0;exitPerimeter=0;entryX=-0.003;entryY=0.038;entryDx=0;entryDy=0;entryPerimeter=0;" parent="1" edge="1" source="CH4vfQJ2e6H9l5YuJAfh-312">
          <mxGeometry width="50" height="50" relative="1" as="geometry">
            <mxPoint x="729.0639999999999" y="45.03699999999992" as="sourcePoint" />
            <mxPoint x="808.8110000000001" y="59.84732000000008" as="targetPoint" />
            <Array as="points">
              <mxPoint x="727" y="60" />
            </Array>
          </mxGeometry>
        </mxCell>
        <mxCell id="CH4vfQJ2e6H9l5YuJAfh-43" value="" style="endArrow=classic;html=1;rounded=0;exitX=0.513;exitY=1.005;exitDx=0;exitDy=0;exitPerimeter=0;entryX=-0.001;entryY=0.115;entryDx=0;entryDy=0;entryPerimeter=0;" parent="1" edge="1" target="CH4vfQJ2e6H9l5YuJAfh-243">
          <mxGeometry width="50" height="50" relative="1" as="geometry">
            <mxPoint x="717.3179999999998" y="45.09249999999986" as="sourcePoint" />
            <mxPoint x="807" y="100" as="targetPoint" />
            <Array as="points">
              <mxPoint x="717" y="80" />
            </Array>
          </mxGeometry>
        </mxCell>
        <mxCell id="CH4vfQJ2e6H9l5YuJAfh-44" value="&lt;span style=&quot;font-size: 7px;&quot;&gt;pipe1_rd_wb_w[4:0]&lt;/span&gt;" style="text;strokeColor=none;align=center;fillColor=none;html=1;verticalAlign=middle;whiteSpace=wrap;rounded=0;" parent="1" vertex="1">
          <mxGeometry x="732" y="67" width="65" height="10" as="geometry" />
        </mxCell>
        <mxCell id="CH4vfQJ2e6H9l5YuJAfh-45" value="" style="endArrow=classic;html=1;rounded=0;exitX=0.502;exitY=1.013;exitDx=0;exitDy=0;exitPerimeter=0;entryX=0.001;entryY=0.193;entryDx=0;entryDy=0;entryPerimeter=0;" parent="1" edge="1" target="CH4vfQJ2e6H9l5YuJAfh-243">
          <mxGeometry width="50" height="50" relative="1" as="geometry">
            <mxPoint x="707.5719999999999" y="45.240499999999884" as="sourcePoint" />
            <mxPoint x="807" y="120" as="targetPoint" />
            <Array as="points">
              <mxPoint x="707" y="100" />
            </Array>
          </mxGeometry>
        </mxCell>
        <mxCell id="CH4vfQJ2e6H9l5YuJAfh-46" value="" style="endArrow=classic;html=1;rounded=0;exitX=0.49;exitY=0.999;exitDx=0;exitDy=0;exitPerimeter=0;entryX=0;entryY=0.269;entryDx=0;entryDy=0;entryPerimeter=0;" parent="1" edge="1" target="CH4vfQJ2e6H9l5YuJAfh-243">
          <mxGeometry width="50" height="50" relative="1" as="geometry">
            <mxPoint x="696.9399999999998" y="44.98149999999998" as="sourcePoint" />
            <mxPoint x="807" y="140" as="targetPoint" />
            <Array as="points">
              <mxPoint x="697" y="120" />
            </Array>
          </mxGeometry>
        </mxCell>
        <mxCell id="CH4vfQJ2e6H9l5YuJAfh-47" value="&lt;span style=&quot;font-size: 7px;&quot;&gt;pipe0_rd_e2_w[4:0]&lt;/span&gt;" style="text;strokeColor=none;align=center;fillColor=none;html=1;verticalAlign=middle;whiteSpace=wrap;rounded=0;" parent="1" vertex="1">
          <mxGeometry x="737" y="88" width="55" height="10" as="geometry" />
        </mxCell>
        <mxCell id="CH4vfQJ2e6H9l5YuJAfh-48" value="&lt;span style=&quot;font-size: 7px;&quot;&gt;pipe1_rd_e2_w[4:0]&lt;/span&gt;" style="text;strokeColor=none;align=center;fillColor=none;html=1;verticalAlign=middle;whiteSpace=wrap;rounded=0;" parent="1" vertex="1">
          <mxGeometry x="732" y="108" width="65" height="10" as="geometry" />
        </mxCell>
        <mxCell id="CH4vfQJ2e6H9l5YuJAfh-49" value="" style="endArrow=classic;html=1;rounded=0;exitX=0.479;exitY=0.979;exitDx=0;exitDy=0;exitPerimeter=0;entryX=-0.001;entryY=0.346;entryDx=0;entryDy=0;entryPerimeter=0;" parent="1" edge="1" target="CH4vfQJ2e6H9l5YuJAfh-243">
          <mxGeometry width="50" height="50" relative="1" as="geometry">
            <mxPoint x="687.1939999999997" y="44.61149999999998" as="sourcePoint" />
            <mxPoint x="807" y="160" as="targetPoint" />
            <Array as="points">
              <mxPoint x="687" y="140" />
            </Array>
          </mxGeometry>
        </mxCell>
        <mxCell id="CH4vfQJ2e6H9l5YuJAfh-50" value="" style="endArrow=classic;html=1;rounded=0;exitX=0.468;exitY=0.992;exitDx=0;exitDy=0;exitPerimeter=0;entryX=-0.002;entryY=0.424;entryDx=0;entryDy=0;entryPerimeter=0;" parent="1" edge="1" target="CH4vfQJ2e6H9l5YuJAfh-243">
          <mxGeometry width="50" height="50" relative="1" as="geometry">
            <mxPoint x="677.4479999999999" y="44.851999999999975" as="sourcePoint" />
            <mxPoint x="807" y="180" as="targetPoint" />
            <Array as="points">
              <mxPoint x="677" y="160" />
            </Array>
          </mxGeometry>
        </mxCell>
        <mxCell id="CH4vfQJ2e6H9l5YuJAfh-51" value="&lt;span style=&quot;font-size: 7px;&quot;&gt;pipe0_rd_e1_w[4:0]&lt;/span&gt;" style="text;strokeColor=none;align=center;fillColor=none;html=1;verticalAlign=middle;whiteSpace=wrap;rounded=0;" parent="1" vertex="1">
          <mxGeometry x="737" y="127.82999999999998" width="55" height="10" as="geometry" />
        </mxCell>
        <mxCell id="CH4vfQJ2e6H9l5YuJAfh-52" value="&lt;span style=&quot;font-size: 7px;&quot;&gt;pipe1_rd_e1_w[4:0]&lt;/span&gt;" style="text;strokeColor=none;align=center;fillColor=none;html=1;verticalAlign=middle;whiteSpace=wrap;rounded=0;" parent="1" vertex="1">
          <mxGeometry x="732" y="148" width="65" height="10" as="geometry" />
        </mxCell>
        <mxCell id="CH4vfQJ2e6H9l5YuJAfh-57" value="&lt;p style=&quot;line-height: 55%;&quot;&gt;&lt;span style=&quot;font-size: 7px;&quot;&gt;issue_a_rb_value_w&lt;br&gt;[31:0]&lt;/span&gt;&lt;/p&gt;" style="text;strokeColor=none;align=right;fillColor=none;html=1;verticalAlign=middle;whiteSpace=wrap;rounded=0;" parent="1" vertex="1">
          <mxGeometry x="729.25" y="181.71" width="66.75" height="16.29" as="geometry" />
        </mxCell>
        <mxCell id="CH4vfQJ2e6H9l5YuJAfh-58" value="&lt;p style=&quot;line-height: 52%;&quot;&gt;&lt;span style=&quot;font-size: 7px;&quot;&gt;issue_a_ra_value_w&lt;br&gt;[31:0]&lt;/span&gt;&lt;/p&gt;" style="text;strokeColor=none;align=right;fillColor=none;html=1;verticalAlign=middle;whiteSpace=wrap;rounded=0;" parent="1" vertex="1">
          <mxGeometry x="728.25" y="162" width="67.75" height="15" as="geometry" />
        </mxCell>
        <mxCell id="CH4vfQJ2e6H9l5YuJAfh-59" value="&lt;p style=&quot;line-height: 55%;&quot;&gt;&lt;font style=&quot;font-size: 7px;&quot;&gt;issue_a_ra_idx_w&lt;br&gt;[4:0]&lt;/font&gt;&lt;/p&gt;" style="text;strokeColor=none;align=right;fillColor=none;html=1;verticalAlign=middle;whiteSpace=wrap;rounded=0;" parent="1" vertex="1">
          <mxGeometry x="744" y="202.5" width="52" height="15" as="geometry" />
        </mxCell>
        <mxCell id="CH4vfQJ2e6H9l5YuJAfh-60" value="&lt;p style=&quot;line-height: 50%;&quot;&gt;&lt;font style=&quot;font-size: 7px;&quot;&gt;issue_a_rb_idx_w&lt;br&gt;[4:0]&lt;/font&gt;&lt;/p&gt;" style="text;strokeColor=none;align=right;fillColor=none;html=1;verticalAlign=middle;whiteSpace=wrap;rounded=0;" parent="1" vertex="1">
          <mxGeometry x="737" y="223.54000000000002" width="58" height="12.46" as="geometry" />
        </mxCell>
        <mxCell id="CH4vfQJ2e6H9l5YuJAfh-62" value="&lt;font style=&quot;font-size: 7px;&quot;&gt;opcode_a_pc_r&lt;/font&gt;" style="text;strokeColor=none;align=center;fillColor=none;html=1;verticalAlign=middle;whiteSpace=wrap;rounded=0;" parent="1" vertex="1">
          <mxGeometry x="744" y="277" width="54" height="10" as="geometry" />
        </mxCell>
        <mxCell id="CH4vfQJ2e6H9l5YuJAfh-63" value="&lt;font style=&quot;font-size: 7px;&quot;&gt;opcode_a_r&lt;/font&gt;" style="text;strokeColor=none;align=center;fillColor=none;html=1;verticalAlign=middle;whiteSpace=wrap;rounded=0;" parent="1" vertex="1">
          <mxGeometry x="756.1999999999999" y="256.54" width="41.8" height="10" as="geometry" />
        </mxCell>
        <mxCell id="CH4vfQJ2e6H9l5YuJAfh-67" value="" style="endArrow=classic;html=1;rounded=0;exitX=0.798;exitY=0.992;exitDx=0;exitDy=0;exitPerimeter=0;" parent="1" edge="1">
          <mxGeometry width="50" height="50" relative="1" as="geometry">
            <mxPoint x="969.828" y="44.851999999999975" as="sourcePoint" />
            <mxPoint x="870" y="60" as="targetPoint" />
            <Array as="points">
              <mxPoint x="970" y="60" />
            </Array>
          </mxGeometry>
        </mxCell>
        <mxCell id="CH4vfQJ2e6H9l5YuJAfh-68" value="" style="endArrow=classic;html=1;rounded=0;exitX=0.809;exitY=1.006;exitDx=0;exitDy=0;exitPerimeter=0;" parent="1" edge="1">
          <mxGeometry width="50" height="50" relative="1" as="geometry">
            <mxPoint x="979.5740000000001" y="45.11099999999999" as="sourcePoint" />
            <mxPoint x="870" y="80" as="targetPoint" />
            <Array as="points">
              <mxPoint x="980" y="80" />
            </Array>
          </mxGeometry>
        </mxCell>
        <mxCell id="CH4vfQJ2e6H9l5YuJAfh-69" value="" style="endArrow=classic;html=1;rounded=0;exitX=0.821;exitY=0.999;exitDx=0;exitDy=0;exitPerimeter=0;" parent="1" edge="1">
          <mxGeometry width="50" height="50" relative="1" as="geometry">
            <mxPoint x="990.2059999999997" y="44.98149999999998" as="sourcePoint" />
            <mxPoint x="870" y="100" as="targetPoint" />
            <Array as="points">
              <mxPoint x="990" y="100" />
            </Array>
          </mxGeometry>
        </mxCell>
        <mxCell id="CH4vfQJ2e6H9l5YuJAfh-70" value="&lt;font style=&quot;font-size: 7px;&quot;&gt;pipe0_result_wb_w[31:0]&lt;/font&gt;" style="text;strokeColor=none;align=center;fillColor=none;html=1;verticalAlign=middle;whiteSpace=wrap;rounded=0;" parent="1" vertex="1">
          <mxGeometry x="878" y="45" width="82" height="13" as="geometry" />
        </mxCell>
        <mxCell id="CH4vfQJ2e6H9l5YuJAfh-71" value="&lt;font style=&quot;font-size: 7px;&quot;&gt;pipe1_result_wb_w[31:0]&lt;/font&gt;" style="text;strokeColor=none;align=center;fillColor=none;html=1;verticalAlign=middle;whiteSpace=wrap;rounded=0;" parent="1" vertex="1">
          <mxGeometry x="878" y="65" width="82" height="13" as="geometry" />
        </mxCell>
        <mxCell id="CH4vfQJ2e6H9l5YuJAfh-72" value="&lt;font style=&quot;font-size: 7px;&quot;&gt;pipe0_result_e2_w[31:0]&lt;/font&gt;" style="text;strokeColor=none;align=center;fillColor=none;html=1;verticalAlign=middle;whiteSpace=wrap;rounded=0;" parent="1" vertex="1">
          <mxGeometry x="877" y="85" width="82" height="13" as="geometry" />
        </mxCell>
        <mxCell id="CH4vfQJ2e6H9l5YuJAfh-73" value="" style="endArrow=classic;html=1;rounded=0;exitX=0.832;exitY=1.02;exitDx=0;exitDy=0;exitPerimeter=0;" parent="1" edge="1">
          <mxGeometry width="50" height="50" relative="1" as="geometry">
            <mxPoint x="999.9519999999998" y="45.36999999999989" as="sourcePoint" />
            <mxPoint x="870" y="120" as="targetPoint" />
            <Array as="points">
              <mxPoint x="1000" y="120" />
            </Array>
          </mxGeometry>
        </mxCell>
        <mxCell id="CH4vfQJ2e6H9l5YuJAfh-74" value="&lt;font style=&quot;font-size: 7px;&quot;&gt;pipe1_result_e2_w[31:0]&lt;/font&gt;" style="text;strokeColor=none;align=center;fillColor=none;html=1;verticalAlign=middle;whiteSpace=wrap;rounded=0;" parent="1" vertex="1">
          <mxGeometry x="877" y="106.83000000000001" width="82" height="13" as="geometry" />
        </mxCell>
        <mxCell id="CH4vfQJ2e6H9l5YuJAfh-77" value="" style="endArrow=classic;html=1;rounded=0;exitX=0.843;exitY=0.999;exitDx=0;exitDy=0;exitPerimeter=0;" parent="1" edge="1">
          <mxGeometry width="50" height="50" relative="1" as="geometry">
            <mxPoint x="1009.6979999999999" y="44.98149999999998" as="sourcePoint" />
            <mxPoint x="870" y="140" as="targetPoint" />
            <Array as="points">
              <mxPoint x="1010" y="140" />
            </Array>
          </mxGeometry>
        </mxCell>
        <mxCell id="CH4vfQJ2e6H9l5YuJAfh-78" value="&lt;p style=&quot;line-height: 60%;&quot;&gt;&lt;font style=&quot;font-size: 7px;&quot;&gt;writeback_exec0_value_i&lt;br&gt;[31:0]&lt;/font&gt;&lt;/p&gt;" style="text;strokeColor=none;align=left;fillColor=none;html=1;verticalAlign=middle;whiteSpace=wrap;rounded=0;" parent="1" vertex="1">
          <mxGeometry x="878" y="121.5" width="102" height="13" as="geometry" />
        </mxCell>
        <mxCell id="CH4vfQJ2e6H9l5YuJAfh-79" value="" style="endArrow=classic;html=1;rounded=0;exitX=0.855;exitY=0.972;exitDx=0;exitDy=0;exitPerimeter=0;" parent="1" edge="1">
          <mxGeometry width="50" height="50" relative="1" as="geometry">
            <mxPoint x="1020.3299999999999" y="44.48199999999986" as="sourcePoint" />
            <mxPoint x="870" y="160" as="targetPoint" />
            <Array as="points">
              <mxPoint x="1020" y="160" />
            </Array>
          </mxGeometry>
        </mxCell>
        <mxCell id="CH4vfQJ2e6H9l5YuJAfh-80" value="&lt;p style=&quot;line-height: 60%;&quot;&gt;&lt;font style=&quot;font-size: 7px;&quot;&gt;writeback_exec1_value_i&lt;br&gt;[31:0]&lt;/font&gt;&lt;/p&gt;" style="text;strokeColor=none;align=left;fillColor=none;html=1;verticalAlign=middle;whiteSpace=wrap;rounded=0;" parent="1" vertex="1">
          <mxGeometry x="878" y="141" width="102" height="13" as="geometry" />
        </mxCell>
        <mxCell id="CH4vfQJ2e6H9l5YuJAfh-81" value="" style="endArrow=classic;html=1;rounded=0;entryX=0.866;entryY=0.999;entryDx=0;entryDy=0;entryPerimeter=0;" parent="1" edge="1">
          <mxGeometry width="50" height="50" relative="1" as="geometry">
            <mxPoint x="870" y="180" as="sourcePoint" />
            <mxPoint x="1030.076" y="44.98149999999998" as="targetPoint" />
            <Array as="points">
              <mxPoint x="1030" y="180" />
            </Array>
          </mxGeometry>
        </mxCell>
        <mxCell id="CH4vfQJ2e6H9l5YuJAfh-82" value="" style="endArrow=classic;html=1;rounded=0;entryX=0.877;entryY=0.985;entryDx=0;entryDy=0;entryPerimeter=0;" parent="1" edge="1">
          <mxGeometry width="50" height="50" relative="1" as="geometry">
            <mxPoint x="870" y="200" as="sourcePoint" />
            <mxPoint x="1039.8219999999997" y="44.72249999999997" as="targetPoint" />
            <Array as="points">
              <mxPoint x="1040" y="200" />
            </Array>
          </mxGeometry>
        </mxCell>
        <mxCell id="CH4vfQJ2e6H9l5YuJAfh-83" value="&lt;font style=&quot;font-size: 7px;&quot;&gt;opcode0_rb_operand_o[31:0]&lt;/font&gt;" style="text;strokeColor=none;align=center;fillColor=none;html=1;verticalAlign=middle;whiteSpace=wrap;rounded=0;" parent="1" vertex="1">
          <mxGeometry x="870" y="185.5" width="96" height="13" as="geometry" />
        </mxCell>
        <mxCell id="CH4vfQJ2e6H9l5YuJAfh-84" value="&lt;font style=&quot;font-size: 7px;&quot;&gt;opcode0_ra_operand_o[31:0]&lt;/font&gt;" style="text;strokeColor=none;align=center;fillColor=none;html=1;verticalAlign=middle;whiteSpace=wrap;rounded=0;" parent="1" vertex="1">
          <mxGeometry x="867" y="165.5" width="102" height="13" as="geometry" />
        </mxCell>
        <mxCell id="CH4vfQJ2e6H9l5YuJAfh-86" value="" style="endArrow=classic;html=1;rounded=0;entryX=0.005;entryY=0.181;entryDx=0;entryDy=0;entryPerimeter=0;" parent="1" edge="1">
          <mxGeometry width="50" height="50" relative="1" as="geometry">
            <mxPoint x="727" y="60" as="sourcePoint" />
            <mxPoint x="807.315" y="360.05999999999995" as="targetPoint" />
            <Array as="points">
              <mxPoint x="727" y="360" />
            </Array>
          </mxGeometry>
        </mxCell>
        <mxCell id="CH4vfQJ2e6H9l5YuJAfh-87" value="&lt;font style=&quot;font-size: 7px;&quot;&gt;opcode_b_pc_r[31:0]&lt;/font&gt;" style="text;strokeColor=none;align=center;fillColor=none;html=1;verticalAlign=middle;whiteSpace=wrap;rounded=0;" parent="1" vertex="1">
          <mxGeometry x="728.2" y="328" width="66.8" height="10" as="geometry" />
        </mxCell>
        <mxCell id="CH4vfQJ2e6H9l5YuJAfh-88" value="&lt;font style=&quot;font-size: 7px;&quot;&gt;opcode_b_r[31:0]&lt;/font&gt;" style="text;strokeColor=none;align=center;fillColor=none;html=1;verticalAlign=middle;whiteSpace=wrap;rounded=0;" parent="1" vertex="1">
          <mxGeometry x="738.5" y="308.29" width="57" height="10" as="geometry" />
        </mxCell>
        <mxCell id="CH4vfQJ2e6H9l5YuJAfh-90" value="" style="endArrow=classic;html=1;rounded=0;entryX=0.005;entryY=0.257;entryDx=0;entryDy=0;entryPerimeter=0;" parent="1" edge="1">
          <mxGeometry width="50" height="50" relative="1" as="geometry">
            <mxPoint x="717" y="80" as="sourcePoint" />
            <mxPoint x="807.315" y="379.82000000000016" as="targetPoint" />
            <Array as="points">
              <mxPoint x="717" y="380" />
            </Array>
          </mxGeometry>
        </mxCell>
        <mxCell id="CH4vfQJ2e6H9l5YuJAfh-91" value="" style="endArrow=classic;html=1;rounded=0;entryX=0.012;entryY=0.338;entryDx=0;entryDy=0;entryPerimeter=0;" parent="1" edge="1">
          <mxGeometry width="50" height="50" relative="1" as="geometry">
            <mxPoint x="707" y="100" as="sourcePoint" />
            <mxPoint x="807.7560000000001" y="399.866" as="targetPoint" />
            <Array as="points">
              <mxPoint x="707" y="400" />
            </Array>
          </mxGeometry>
        </mxCell>
        <mxCell id="CH4vfQJ2e6H9l5YuJAfh-92" value="" style="endArrow=classic;html=1;rounded=0;entryX=-0.003;entryY=0.489;entryDx=0;entryDy=0;entryPerimeter=0;" parent="1" edge="1">
          <mxGeometry width="50" height="50" relative="1" as="geometry">
            <mxPoint x="687" y="140" as="sourcePoint" />
            <mxPoint x="806.8109999999997" y="440.1400000000001" as="targetPoint" />
            <Array as="points">
              <mxPoint x="687" y="440" />
            </Array>
          </mxGeometry>
        </mxCell>
        <mxCell id="CH4vfQJ2e6H9l5YuJAfh-93" value="" style="endArrow=classic;html=1;rounded=0;entryX=0.001;entryY=0.411;entryDx=0;entryDy=0;entryPerimeter=0;" parent="1" edge="1">
          <mxGeometry width="50" height="50" relative="1" as="geometry">
            <mxPoint x="697" y="120" as="sourcePoint" />
            <mxPoint x="807.0630000000001" y="419.8599999999999" as="targetPoint" />
            <Array as="points">
              <mxPoint x="697" y="420" />
            </Array>
          </mxGeometry>
        </mxCell>
        <mxCell id="CH4vfQJ2e6H9l5YuJAfh-94" value="" style="endArrow=classic;html=1;rounded=0;entryX=0.001;entryY=0.565;entryDx=0;entryDy=0;entryPerimeter=0;" parent="1" edge="1">
          <mxGeometry width="50" height="50" relative="1" as="geometry">
            <mxPoint x="677" y="160" as="sourcePoint" />
            <mxPoint x="807.0630000000001" y="459.89999999999986" as="targetPoint" />
            <Array as="points">
              <mxPoint x="677" y="460" />
            </Array>
          </mxGeometry>
        </mxCell>
        <mxCell id="CH4vfQJ2e6H9l5YuJAfh-96" value="&lt;span style=&quot;font-size: 7px;&quot;&gt;pipe1_rd_wb_w[4:0]&lt;/span&gt;" style="text;strokeColor=none;align=center;fillColor=none;html=1;verticalAlign=middle;whiteSpace=wrap;rounded=0;" parent="1" vertex="1">
          <mxGeometry x="732" y="67" width="65" height="10" as="geometry" />
        </mxCell>
        <mxCell id="CH4vfQJ2e6H9l5YuJAfh-97" value="&lt;span style=&quot;font-size: 7px;&quot;&gt;pipe1_rd_e2_w[4:0]&lt;/span&gt;" style="text;strokeColor=none;align=center;fillColor=none;html=1;verticalAlign=middle;whiteSpace=wrap;rounded=0;" parent="1" vertex="1">
          <mxGeometry x="731" y="408" width="65" height="10" as="geometry" />
        </mxCell>
        <mxCell id="CH4vfQJ2e6H9l5YuJAfh-98" value="&lt;span style=&quot;font-size: 7px;&quot;&gt;pipe0_rd_e1_w[4:0]&lt;/span&gt;" style="text;strokeColor=none;align=center;fillColor=none;html=1;verticalAlign=middle;whiteSpace=wrap;rounded=0;" parent="1" vertex="1">
          <mxGeometry x="736" y="426.85999999999996" width="55" height="10" as="geometry" />
        </mxCell>
        <mxCell id="CH4vfQJ2e6H9l5YuJAfh-99" value="&lt;span style=&quot;font-size: 7px;&quot;&gt;pipe1_rd_e1_w[4:0]&lt;/span&gt;" style="text;strokeColor=none;align=center;fillColor=none;html=1;verticalAlign=middle;whiteSpace=wrap;rounded=0;" parent="1" vertex="1">
          <mxGeometry x="731" y="447" width="65" height="10" as="geometry" />
        </mxCell>
        <mxCell id="CH4vfQJ2e6H9l5YuJAfh-100" value="&lt;font style=&quot;font-size: 7px;&quot;&gt;pipe0_rd_wb_w[4:0]&lt;/font&gt;" style="text;strokeColor=none;align=center;fillColor=none;html=1;verticalAlign=middle;whiteSpace=wrap;rounded=0;" parent="1" vertex="1">
          <mxGeometry x="735" y="347" width="55" height="10" as="geometry" />
        </mxCell>
        <mxCell id="CH4vfQJ2e6H9l5YuJAfh-101" value="&lt;span style=&quot;font-size: 7px;&quot;&gt;pipe1_rd_wb_w[4:0]&lt;/span&gt;" style="text;strokeColor=none;align=center;fillColor=none;html=1;verticalAlign=middle;whiteSpace=wrap;rounded=0;" parent="1" vertex="1">
          <mxGeometry x="729.5" y="367.9" width="65" height="10" as="geometry" />
        </mxCell>
        <mxCell id="CH4vfQJ2e6H9l5YuJAfh-102" value="&lt;span style=&quot;font-size: 7px;&quot;&gt;pipe0_rd_e2_w[4:0]&lt;/span&gt;" style="text;strokeColor=none;align=center;fillColor=none;html=1;verticalAlign=middle;whiteSpace=wrap;rounded=0;" parent="1" vertex="1">
          <mxGeometry x="736" y="387.9" width="55" height="10" as="geometry" />
        </mxCell>
        <mxCell id="CH4vfQJ2e6H9l5YuJAfh-103" value="&lt;span style=&quot;font-size: 7px;&quot;&gt;issue_b_rb_value_w[31:0]&lt;/span&gt;" style="text;strokeColor=none;align=center;fillColor=none;html=1;verticalAlign=middle;whiteSpace=wrap;rounded=0;" parent="1" vertex="1">
          <mxGeometry x="710.5" y="487" width="85.5" height="10" as="geometry" />
        </mxCell>
        <mxCell id="CH4vfQJ2e6H9l5YuJAfh-104" value="&lt;span style=&quot;font-size: 7px;&quot;&gt;issue_b_ra_value_w[31:0]&lt;/span&gt;" style="text;strokeColor=none;align=center;fillColor=none;html=1;verticalAlign=middle;whiteSpace=wrap;rounded=0;" parent="1" vertex="1">
          <mxGeometry x="712.5" y="467" width="80.5" height="10" as="geometry" />
        </mxCell>
        <mxCell id="CH4vfQJ2e6H9l5YuJAfh-105" value="&lt;font style=&quot;font-size: 7px;&quot;&gt;issue_b_ra_idx_w[4:0]&lt;/font&gt;" style="text;strokeColor=none;align=center;fillColor=none;html=1;verticalAlign=middle;whiteSpace=wrap;rounded=0;" parent="1" vertex="1">
          <mxGeometry x="725.1" y="507" width="66.9" height="10" as="geometry" />
        </mxCell>
        <mxCell id="CH4vfQJ2e6H9l5YuJAfh-106" value="&lt;font style=&quot;font-size: 7px;&quot;&gt;issue_b_rb_idx_w[4:0]&lt;/font&gt;" style="text;strokeColor=none;align=center;fillColor=none;html=1;verticalAlign=middle;whiteSpace=wrap;rounded=0;" parent="1" vertex="1">
          <mxGeometry x="724.6" y="527.33" width="67.9" height="10" as="geometry" />
        </mxCell>
        <mxCell id="CH4vfQJ2e6H9l5YuJAfh-107" value="" style="endArrow=classic;html=1;rounded=0;entryX=0.889;entryY=0.999;entryDx=0;entryDy=0;entryPerimeter=0;" parent="1" edge="1">
          <mxGeometry width="50" height="50" relative="1" as="geometry">
            <mxPoint x="870" y="440" as="sourcePoint" />
            <mxPoint x="1050.4540000000002" y="44.98149999999998" as="targetPoint" />
            <Array as="points">
              <mxPoint x="1050" y="440" />
            </Array>
          </mxGeometry>
        </mxCell>
        <mxCell id="CH4vfQJ2e6H9l5YuJAfh-108" value="" style="endArrow=classic;html=1;rounded=0;entryX=0.9;entryY=1.041;entryDx=0;entryDy=0;entryPerimeter=0;" parent="1" edge="1">
          <mxGeometry width="50" height="50" relative="1" as="geometry">
            <mxPoint x="870" y="460" as="sourcePoint" />
            <mxPoint x="1060.1999999999998" y="45.75849999999991" as="targetPoint" />
            <Array as="points">
              <mxPoint x="1060" y="460" />
            </Array>
          </mxGeometry>
        </mxCell>
        <mxCell id="CH4vfQJ2e6H9l5YuJAfh-109" value="&lt;font style=&quot;font-size: 7px;&quot;&gt;opcode0_rb_operand_o[31:0]&lt;/font&gt;" style="text;strokeColor=none;align=center;fillColor=none;html=1;verticalAlign=middle;whiteSpace=wrap;rounded=0;" parent="1" vertex="1">
          <mxGeometry x="872" y="446.33" width="90" height="13" as="geometry" />
        </mxCell>
        <mxCell id="CH4vfQJ2e6H9l5YuJAfh-110" value="&lt;font style=&quot;font-size: 7px;&quot;&gt;opcode0_ra_operand_o[31:0]&lt;/font&gt;" style="text;strokeColor=none;align=center;fillColor=none;html=1;verticalAlign=middle;whiteSpace=wrap;rounded=0;" parent="1" vertex="1">
          <mxGeometry x="867" y="425.83000000000004" width="102" height="13" as="geometry" />
        </mxCell>
        <mxCell id="CH4vfQJ2e6H9l5YuJAfh-111" value="" style="endArrow=classic;html=1;rounded=0;" parent="1" edge="1">
          <mxGeometry width="50" height="50" relative="1" as="geometry">
            <mxPoint x="970" y="60" as="sourcePoint" />
            <mxPoint x="870" y="320" as="targetPoint" />
            <Array as="points">
              <mxPoint x="970" y="320" />
            </Array>
          </mxGeometry>
        </mxCell>
        <mxCell id="CH4vfQJ2e6H9l5YuJAfh-112" value="" style="endArrow=classic;html=1;rounded=0;" parent="1" edge="1">
          <mxGeometry width="50" height="50" relative="1" as="geometry">
            <mxPoint x="980" y="80" as="sourcePoint" />
            <mxPoint x="870" y="340" as="targetPoint" />
            <Array as="points">
              <mxPoint x="980" y="340" />
            </Array>
          </mxGeometry>
        </mxCell>
        <mxCell id="CH4vfQJ2e6H9l5YuJAfh-113" value="" style="endArrow=classic;html=1;rounded=0;" parent="1" edge="1">
          <mxGeometry width="50" height="50" relative="1" as="geometry">
            <mxPoint x="990" y="100" as="sourcePoint" />
            <mxPoint x="870" y="360" as="targetPoint" />
            <Array as="points">
              <mxPoint x="990" y="360" />
            </Array>
          </mxGeometry>
        </mxCell>
        <mxCell id="CH4vfQJ2e6H9l5YuJAfh-114" value="" style="endArrow=classic;html=1;rounded=0;" parent="1" edge="1">
          <mxGeometry width="50" height="50" relative="1" as="geometry">
            <mxPoint x="1000" y="120" as="sourcePoint" />
            <mxPoint x="870" y="380" as="targetPoint" />
            <Array as="points">
              <mxPoint x="1000" y="380" />
            </Array>
          </mxGeometry>
        </mxCell>
        <mxCell id="CH4vfQJ2e6H9l5YuJAfh-115" value="" style="endArrow=classic;html=1;rounded=0;" parent="1" edge="1">
          <mxGeometry width="50" height="50" relative="1" as="geometry">
            <mxPoint x="1010" y="140" as="sourcePoint" />
            <mxPoint x="870" y="400" as="targetPoint" />
            <Array as="points">
              <mxPoint x="1010" y="400" />
            </Array>
          </mxGeometry>
        </mxCell>
        <mxCell id="CH4vfQJ2e6H9l5YuJAfh-116" value="" style="endArrow=classic;html=1;rounded=0;" parent="1" edge="1">
          <mxGeometry width="50" height="50" relative="1" as="geometry">
            <mxPoint x="1020" y="160" as="sourcePoint" />
            <mxPoint x="870" y="420" as="targetPoint" />
            <Array as="points">
              <mxPoint x="1020" y="420" />
            </Array>
          </mxGeometry>
        </mxCell>
        <mxCell id="CH4vfQJ2e6H9l5YuJAfh-118" value="&lt;font style=&quot;font-size: 7px;&quot;&gt;pipe0_result_wb_w[31:0]&lt;/font&gt;" style="text;strokeColor=none;align=center;fillColor=none;html=1;verticalAlign=middle;whiteSpace=wrap;rounded=0;" parent="1" vertex="1">
          <mxGeometry x="881" y="307.86" width="82" height="13" as="geometry" />
        </mxCell>
        <mxCell id="CH4vfQJ2e6H9l5YuJAfh-119" value="&lt;font style=&quot;font-size: 7px;&quot;&gt;pipe1_result_wb_w[31:0]&lt;/font&gt;" style="text;strokeColor=none;align=center;fillColor=none;html=1;verticalAlign=middle;whiteSpace=wrap;rounded=0;" parent="1" vertex="1">
          <mxGeometry x="881" y="327.86" width="82" height="13" as="geometry" />
        </mxCell>
        <mxCell id="CH4vfQJ2e6H9l5YuJAfh-120" value="&lt;font style=&quot;font-size: 7px;&quot;&gt;pipe0_result_e2_w[31:0]&lt;/font&gt;" style="text;strokeColor=none;align=center;fillColor=none;html=1;verticalAlign=middle;whiteSpace=wrap;rounded=0;" parent="1" vertex="1">
          <mxGeometry x="881" y="346.86" width="82" height="13" as="geometry" />
        </mxCell>
        <mxCell id="CH4vfQJ2e6H9l5YuJAfh-121" value="&lt;font style=&quot;font-size: 7px;&quot;&gt;pipe1_result_e2_w[31:0]&lt;/font&gt;" style="text;strokeColor=none;align=center;fillColor=none;html=1;verticalAlign=middle;whiteSpace=wrap;rounded=0;" parent="1" vertex="1">
          <mxGeometry x="881" y="367.69000000000005" width="82" height="13" as="geometry" />
        </mxCell>
        <mxCell id="CH4vfQJ2e6H9l5YuJAfh-122" value="&lt;p style=&quot;line-height: 60%;&quot;&gt;&lt;font style=&quot;font-size: 7px;&quot;&gt;writeback_exec0_value_i&lt;br&gt;[31:0]&lt;/font&gt;&lt;/p&gt;" style="text;strokeColor=none;align=left;fillColor=none;html=1;verticalAlign=middle;whiteSpace=wrap;rounded=0;" parent="1" vertex="1">
          <mxGeometry x="883" y="382.36" width="77" height="13" as="geometry" />
        </mxCell>
        <mxCell id="CH4vfQJ2e6H9l5YuJAfh-123" value="&lt;p style=&quot;line-height: 60%;&quot;&gt;&lt;font style=&quot;font-size: 7px;&quot;&gt;writeback_exec1_value_i&lt;br&gt;[31:0]&lt;/font&gt;&lt;/p&gt;" style="text;strokeColor=none;align=left;fillColor=none;html=1;verticalAlign=middle;whiteSpace=wrap;rounded=0;" parent="1" vertex="1">
          <mxGeometry x="881" y="403.86" width="88" height="13" as="geometry" />
        </mxCell>
        <mxCell id="CH4vfQJ2e6H9l5YuJAfh-135" value="" style="endArrow=classic;html=1;rounded=0;entryX=0.009;entryY=1.039;entryDx=0;entryDy=0;entryPerimeter=0;" parent="1" edge="1">
          <mxGeometry width="50" height="50" relative="1" as="geometry">
            <mxPoint x="270" y="490" as="sourcePoint" />
            <mxPoint x="270.0648" y="45.72150000000002" as="targetPoint" />
            <Array as="points" />
          </mxGeometry>
        </mxCell>
        <mxCell id="CH4vfQJ2e6H9l5YuJAfh-136" value="" style="endArrow=classic;html=1;rounded=0;entryX=0.021;entryY=1.051;entryDx=0;entryDy=0;entryPerimeter=0;" parent="1" edge="1">
          <mxGeometry width="50" height="50" relative="1" as="geometry">
            <mxPoint x="280" y="510" as="sourcePoint" />
            <mxPoint x="279.75120000000004" y="45.9435" as="targetPoint" />
            <Array as="points" />
          </mxGeometry>
        </mxCell>
        <mxCell id="CH4vfQJ2e6H9l5YuJAfh-137" value="" style="endArrow=classic;html=1;rounded=0;entryX=0.034;entryY=1.043;entryDx=0;entryDy=0;entryPerimeter=0;" parent="1" edge="1">
          <mxGeometry width="50" height="50" relative="1" as="geometry">
            <mxPoint x="290" y="530" as="sourcePoint" />
            <mxPoint x="290.24480000000005" y="45.795500000000004" as="targetPoint" />
            <Array as="points" />
          </mxGeometry>
        </mxCell>
        <mxCell id="CH4vfQJ2e6H9l5YuJAfh-138" value="" style="endArrow=classic;html=1;rounded=0;entryX=0.046;entryY=1.031;entryDx=0;entryDy=0;entryPerimeter=0;" parent="1" edge="1">
          <mxGeometry width="50" height="50" relative="1" as="geometry">
            <mxPoint x="300" y="550" as="sourcePoint" />
            <mxPoint x="299.9312000000001" y="45.573499999999996" as="targetPoint" />
            <Array as="points" />
          </mxGeometry>
        </mxCell>
        <mxCell id="CH4vfQJ2e6H9l5YuJAfh-158" value="" style="endArrow=classic;html=1;rounded=0;entryX=0.058;entryY=1.041;entryDx=0;entryDy=0;entryPerimeter=0;" parent="1" edge="1">
          <mxGeometry width="50" height="50" relative="1" as="geometry">
            <mxPoint x="310" y="630" as="sourcePoint" />
            <mxPoint x="309.6175999999999" y="45.7585" as="targetPoint" />
            <Array as="points" />
          </mxGeometry>
        </mxCell>
        <mxCell id="CH4vfQJ2e6H9l5YuJAfh-159" value="" style="endArrow=classic;html=1;rounded=0;entryX=0.071;entryY=1.037;entryDx=0;entryDy=0;entryPerimeter=0;" parent="1" edge="1">
          <mxGeometry width="50" height="50" relative="1" as="geometry">
            <mxPoint x="320" y="650" as="sourcePoint" />
            <mxPoint x="320.11119999999994" y="45.684499999999986" as="targetPoint" />
            <Array as="points" />
          </mxGeometry>
        </mxCell>
        <mxCell id="CH4vfQJ2e6H9l5YuJAfh-160" value="" style="endArrow=classic;html=1;rounded=0;entryX=0.083;entryY=1.035;entryDx=0;entryDy=0;entryPerimeter=0;" parent="1" edge="1">
          <mxGeometry width="50" height="50" relative="1" as="geometry">
            <mxPoint x="330" y="670" as="sourcePoint" />
            <mxPoint x="329.7976" y="45.64750000000001" as="targetPoint" />
            <Array as="points" />
          </mxGeometry>
        </mxCell>
        <mxCell id="CH4vfQJ2e6H9l5YuJAfh-161" value="" style="endArrow=classic;html=1;rounded=0;entryX=0.096;entryY=1.035;entryDx=0;entryDy=0;entryPerimeter=0;" parent="1" edge="1">
          <mxGeometry width="50" height="50" relative="1" as="geometry">
            <mxPoint x="160" y="690" as="sourcePoint" />
            <mxPoint x="340.2912" y="45.64750000000001" as="targetPoint" />
            <Array as="points">
              <mxPoint x="340" y="690" />
            </Array>
          </mxGeometry>
        </mxCell>
        <mxCell id="CH4vfQJ2e6H9l5YuJAfh-162" value="Pipeline Control" style="rounded=1;whiteSpace=wrap;html=1;" parent="1" vertex="1">
          <mxGeometry x="530.63" y="360" width="49.37" height="100" as="geometry" />
        </mxCell>
        <mxCell id="CH4vfQJ2e6H9l5YuJAfh-165" value="&lt;span style=&quot;font-size: 7px;&quot;&gt;opcode_a_issue_r&lt;/span&gt;" style="text;strokeColor=none;align=center;fillColor=none;html=1;verticalAlign=middle;whiteSpace=wrap;rounded=0;" parent="1" vertex="1">
          <mxGeometry x="454.88" y="358.4999999999999" width="55" height="10" as="geometry" />
        </mxCell>
        <mxCell id="CH4vfQJ2e6H9l5YuJAfh-167" value="&lt;span style=&quot;font-size: 7px;&quot;&gt;opcode_a_accept_r&lt;/span&gt;" style="text;strokeColor=none;align=center;fillColor=none;html=1;verticalAlign=middle;whiteSpace=wrap;rounded=0;" parent="1" vertex="1">
          <mxGeometry x="454.88" y="378.14" width="59" height="10" as="geometry" />
        </mxCell>
        <mxCell id="CH4vfQJ2e6H9l5YuJAfh-169" value="&lt;span style=&quot;font-size: 7px;&quot;&gt;opcode_b_issue_r&lt;/span&gt;" style="text;strokeColor=none;align=center;fillColor=none;html=1;verticalAlign=middle;whiteSpace=wrap;rounded=0;" parent="1" vertex="1">
          <mxGeometry x="452.88" y="418.14" width="59" height="10" as="geometry" />
        </mxCell>
        <mxCell id="CH4vfQJ2e6H9l5YuJAfh-171" value="&lt;span style=&quot;font-size: 7px;&quot;&gt;opcode_b_accept_r&lt;/span&gt;" style="text;strokeColor=none;align=center;fillColor=none;html=1;verticalAlign=middle;whiteSpace=wrap;rounded=0;" parent="1" vertex="1">
          <mxGeometry x="456.13" y="398.14" width="59" height="10" as="geometry" />
        </mxCell>
        <mxCell id="CH4vfQJ2e6H9l5YuJAfh-173" value="&lt;span style=&quot;font-size: 7px;&quot;&gt;stall_w&lt;/span&gt;" style="text;strokeColor=none;align=center;fillColor=none;html=1;verticalAlign=middle;whiteSpace=wrap;rounded=0;" parent="1" vertex="1">
          <mxGeometry x="445.88" y="438" width="37.5" height="10" as="geometry" />
        </mxCell>
        <mxCell id="CH4vfQJ2e6H9l5YuJAfh-174" value="" style="endArrow=classic;html=1;rounded=0;" parent="1" edge="1">
          <mxGeometry width="50" height="50" relative="1" as="geometry">
            <mxPoint x="450" y="529.64" as="sourcePoint" />
            <mxPoint x="450" y="790" as="targetPoint" />
            <Array as="points">
              <mxPoint x="550" y="530" />
              <mxPoint x="550" y="790" />
            </Array>
          </mxGeometry>
        </mxCell>
        <mxCell id="CH4vfQJ2e6H9l5YuJAfh-175" value="&lt;span style=&quot;font-size: 7px;&quot;&gt;div_opcode_valid_o&lt;/span&gt;" style="text;strokeColor=none;align=center;fillColor=none;html=1;verticalAlign=middle;whiteSpace=wrap;rounded=0;" parent="1" vertex="1">
          <mxGeometry x="453" y="518" width="59" height="10" as="geometry" />
        </mxCell>
        <mxCell id="CH4vfQJ2e6H9l5YuJAfh-176" value="" style="endArrow=classic;html=1;rounded=0;" parent="1" edge="1">
          <mxGeometry width="50" height="50" relative="1" as="geometry">
            <mxPoint x="450" y="549.64" as="sourcePoint" />
            <mxPoint x="450" y="760" as="targetPoint" />
            <Array as="points">
              <mxPoint x="540" y="550" />
              <mxPoint x="540" y="760" />
            </Array>
          </mxGeometry>
        </mxCell>
        <mxCell id="CH4vfQJ2e6H9l5YuJAfh-177" value="&lt;span style=&quot;font-size: 7px;&quot;&gt;interrupt_inhibit_o&lt;/span&gt;" style="text;strokeColor=none;align=center;fillColor=none;html=1;verticalAlign=middle;whiteSpace=wrap;rounded=0;" parent="1" vertex="1">
          <mxGeometry x="452.25" y="477" width="59" height="10" as="geometry" />
        </mxCell>
        <mxCell id="CH4vfQJ2e6H9l5YuJAfh-178" value="" style="endArrow=classic;html=1;rounded=0;" parent="1" edge="1">
          <mxGeometry width="50" height="50" relative="1" as="geometry">
            <mxPoint x="450" y="569.64" as="sourcePoint" />
            <mxPoint x="450" y="740" as="targetPoint" />
            <Array as="points">
              <mxPoint x="530" y="570" />
              <mxPoint x="530" y="740" />
            </Array>
          </mxGeometry>
        </mxCell>
        <mxCell id="CH4vfQJ2e6H9l5YuJAfh-179" value="&lt;span style=&quot;font-size: 7px;&quot;&gt;exec1_opcode_valid_o&lt;/span&gt;" style="text;strokeColor=none;align=center;fillColor=none;html=1;verticalAlign=middle;whiteSpace=wrap;rounded=0;" parent="1" vertex="1">
          <mxGeometry x="449.25" y="557.83" width="78.75" height="10" as="geometry" />
        </mxCell>
        <mxCell id="CH4vfQJ2e6H9l5YuJAfh-180" value="" style="endArrow=classic;html=1;rounded=0;" parent="1" edge="1">
          <mxGeometry width="50" height="50" relative="1" as="geometry">
            <mxPoint x="450" y="589.64" as="sourcePoint" />
            <mxPoint x="450" y="720" as="targetPoint" />
            <Array as="points">
              <mxPoint x="520" y="590" />
              <mxPoint x="520" y="720" />
            </Array>
          </mxGeometry>
        </mxCell>
        <mxCell id="CH4vfQJ2e6H9l5YuJAfh-181" value="&lt;span style=&quot;font-size: 7px;&quot;&gt;fetch0_accept_o&lt;/span&gt;" style="text;strokeColor=none;align=center;fillColor=none;html=1;verticalAlign=middle;whiteSpace=wrap;rounded=0;" parent="1" vertex="1">
          <mxGeometry x="448.5" y="577.64" width="59" height="10" as="geometry" />
        </mxCell>
        <mxCell id="CH4vfQJ2e6H9l5YuJAfh-182" value="" style="endArrow=classic;html=1;rounded=0;" parent="1" edge="1">
          <mxGeometry width="50" height="50" relative="1" as="geometry">
            <mxPoint x="450" y="609.64" as="sourcePoint" />
            <mxPoint x="450" y="700" as="targetPoint" />
            <Array as="points">
              <mxPoint x="510" y="610" />
              <mxPoint x="510" y="700" />
            </Array>
          </mxGeometry>
        </mxCell>
        <mxCell id="CH4vfQJ2e6H9l5YuJAfh-183" value="&lt;span style=&quot;font-size: 7px;&quot;&gt;fetch1_accept_o&lt;/span&gt;" style="text;strokeColor=none;align=center;fillColor=none;html=1;verticalAlign=middle;whiteSpace=wrap;rounded=0;" parent="1" vertex="1">
          <mxGeometry x="451" y="598" width="56" height="10" as="geometry" />
        </mxCell>
        <mxCell id="CH4vfQJ2e6H9l5YuJAfh-188" value="" style="endArrow=classic;html=1;rounded=0;" parent="1" edge="1">
          <mxGeometry width="50" height="50" relative="1" as="geometry">
            <mxPoint x="450" y="469.64" as="sourcePoint" />
            <mxPoint x="660" y="600" as="targetPoint" />
            <Array as="points">
              <mxPoint x="580" y="470" />
              <mxPoint x="580" y="600" />
            </Array>
          </mxGeometry>
        </mxCell>
        <mxCell id="CH4vfQJ2e6H9l5YuJAfh-189" value="&lt;span style=&quot;font-size: 7px;&quot;&gt;lsu_opcode_valid_o&lt;/span&gt;" style="text;strokeColor=none;align=center;fillColor=none;html=1;verticalAlign=middle;whiteSpace=wrap;rounded=0;" parent="1" vertex="1">
          <mxGeometry x="456.13" y="458.00000000000006" width="59" height="10" as="geometry" />
        </mxCell>
        <mxCell id="CH4vfQJ2e6H9l5YuJAfh-190" value="" style="endArrow=classic;html=1;rounded=0;" parent="1" edge="1">
          <mxGeometry width="50" height="50" relative="1" as="geometry">
            <mxPoint x="450" y="489.64" as="sourcePoint" />
            <mxPoint x="660" y="680" as="targetPoint" />
            <Array as="points">
              <mxPoint x="570" y="490" />
              <mxPoint x="570" y="680" />
            </Array>
          </mxGeometry>
        </mxCell>
        <mxCell id="CH4vfQJ2e6H9l5YuJAfh-191" value="&lt;span style=&quot;font-size: 7px;&quot;&gt;exec0_opcode_valid_o&lt;/span&gt;" style="text;strokeColor=none;align=center;fillColor=none;html=1;verticalAlign=middle;whiteSpace=wrap;rounded=0;" parent="1" vertex="1">
          <mxGeometry x="453.25" y="535.86" width="69.5" height="10" as="geometry" />
        </mxCell>
        <mxCell id="CH4vfQJ2e6H9l5YuJAfh-192" value="" style="endArrow=classic;html=1;rounded=0;" parent="1" edge="1">
          <mxGeometry width="50" height="50" relative="1" as="geometry">
            <mxPoint x="450" y="509.64" as="sourcePoint" />
            <mxPoint x="660" y="740" as="targetPoint" />
            <Array as="points">
              <mxPoint x="560" y="510" />
              <mxPoint x="560" y="740" />
            </Array>
          </mxGeometry>
        </mxCell>
        <mxCell id="CH4vfQJ2e6H9l5YuJAfh-193" value="&lt;span style=&quot;font-size: 7px;&quot;&gt;mul_opcode_valid_o&lt;/span&gt;" style="text;strokeColor=none;align=center;fillColor=none;html=1;verticalAlign=middle;whiteSpace=wrap;rounded=0;" parent="1" vertex="1">
          <mxGeometry x="451" y="497.5" width="66" height="10" as="geometry" />
        </mxCell>
        <mxCell id="CH4vfQJ2e6H9l5YuJAfh-199" value="" style="endArrow=classic;html=1;rounded=0;entryX=-0.003;entryY=0.462;entryDx=0;entryDy=0;entryPerimeter=0;exitX=0.997;exitY=0.471;exitDx=0;exitDy=0;exitPerimeter=0;" parent="1" source="CH4vfQJ2e6H9l5YuJAfh-202" edge="1">
          <mxGeometry width="50" height="50" relative="1" as="geometry">
            <mxPoint x="137" y="120" as="sourcePoint" />
            <mxPoint x="237.27364999999998" y="120.06" as="targetPoint" />
            <Array as="points" />
          </mxGeometry>
        </mxCell>
        <mxCell id="CH4vfQJ2e6H9l5YuJAfh-200" value="&lt;font style=&quot;font-size: 7px;&quot;&gt;pc_x_q[31:0]&lt;/font&gt;" style="text;strokeColor=none;align=center;fillColor=none;html=1;verticalAlign=middle;whiteSpace=wrap;rounded=0;" parent="1" vertex="1">
          <mxGeometry x="165.49999999999997" y="108" width="35.3" height="10" as="geometry" />
        </mxCell>
        <mxCell id="CH4vfQJ2e6H9l5YuJAfh-202" value="&lt;span style=&quot;font-size: 10px;&quot;&gt;PC&lt;/span&gt;" style="rounded=1;whiteSpace=wrap;html=1;" parent="1" vertex="1">
          <mxGeometry x="115.05" y="59.5" width="25.45" height="128.5" as="geometry" />
        </mxCell>
        <mxCell id="CH4vfQJ2e6H9l5YuJAfh-203" value="&lt;font style=&quot;font-size: 7px;&quot;&gt;branch_request_o&lt;/font&gt;" style="text;strokeColor=none;align=center;fillColor=none;html=1;verticalAlign=middle;whiteSpace=wrap;rounded=0;" parent="1" vertex="1">
          <mxGeometry x="40.5" y="19" width="56.5" height="8" as="geometry" />
        </mxCell>
        <mxCell id="CH4vfQJ2e6H9l5YuJAfh-204" value="&lt;font style=&quot;font-size: 7px;&quot;&gt;branch_pc_o[31:0]&lt;/font&gt;" style="text;strokeColor=none;align=center;fillColor=none;html=1;verticalAlign=middle;whiteSpace=wrap;rounded=0;" parent="1" vertex="1">
          <mxGeometry x="38.5" y="29.000000000000043" width="63.05" height="10" as="geometry" />
        </mxCell>
        <mxCell id="CH4vfQJ2e6H9l5YuJAfh-205" value="&lt;font style=&quot;font-size: 7px;&quot;&gt;branch_priv_o[1:0]&lt;/font&gt;" style="text;strokeColor=none;align=center;fillColor=none;html=1;verticalAlign=middle;whiteSpace=wrap;rounded=0;" parent="1" vertex="1">
          <mxGeometry x="39" y="39.00000000000004" width="63.05" height="10" as="geometry" />
        </mxCell>
        <mxCell id="CH4vfQJ2e6H9l5YuJAfh-208" value="&lt;font style=&quot;font-size: 10px;&quot;&gt;Instruction&lt;br&gt;Decoder&lt;/font&gt;" style="rounded=1;whiteSpace=wrap;html=1;" parent="1" vertex="1">
          <mxGeometry x="109.44999999999999" y="240" width="50" height="540" as="geometry" />
        </mxCell>
        <mxCell id="CH4vfQJ2e6H9l5YuJAfh-210" value="" style="endArrow=classic;html=1;rounded=0;" parent="1" edge="1">
          <mxGeometry width="50" height="50" relative="1" as="geometry">
            <mxPoint x="240" y="60" as="sourcePoint" />
            <mxPoint x="30" y="50" as="targetPoint" />
            <Array as="points">
              <mxPoint x="240" y="50" />
            </Array>
          </mxGeometry>
        </mxCell>
        <mxCell id="CH4vfQJ2e6H9l5YuJAfh-211" value="" style="endArrow=classic;html=1;rounded=0;" parent="1" edge="1">
          <mxGeometry width="50" height="50" relative="1" as="geometry">
            <mxPoint x="250" y="60" as="sourcePoint" />
            <mxPoint x="30" y="40" as="targetPoint" />
            <Array as="points">
              <mxPoint x="250" y="40.5" />
            </Array>
          </mxGeometry>
        </mxCell>
        <mxCell id="CH4vfQJ2e6H9l5YuJAfh-212" value="" style="endArrow=classic;html=1;rounded=0;" parent="1" edge="1">
          <mxGeometry width="50" height="50" relative="1" as="geometry">
            <mxPoint x="260" y="60" as="sourcePoint" />
            <mxPoint x="30" y="30" as="targetPoint" />
            <Array as="points">
              <mxPoint x="260" y="30" />
            </Array>
          </mxGeometry>
        </mxCell>
        <mxCell id="CH4vfQJ2e6H9l5YuJAfh-217" value="&lt;span style=&quot;font-size: 7px;&quot;&gt;Issue&lt;br&gt;select&lt;br&gt;&lt;/span&gt;" style="rounded=1;whiteSpace=wrap;html=1;arcSize=14;" parent="1" vertex="1">
          <mxGeometry x="237.35" y="60" width="25.45" height="130" as="geometry" />
        </mxCell>
        <mxCell id="CH4vfQJ2e6H9l5YuJAfh-225" value="Regfile" style="rounded=1;whiteSpace=wrap;html=1;" parent="1" vertex="1">
          <mxGeometry x="455" y="66.29" width="60" height="169.71" as="geometry" />
        </mxCell>
        <mxCell id="CH4vfQJ2e6H9l5YuJAfh-237" value="" style="endArrow=classic;html=1;rounded=0;" parent="1" edge="1">
          <mxGeometry width="50" height="50" relative="1" as="geometry">
            <mxPoint x="870" y="220" as="sourcePoint" />
            <mxPoint x="870" y="680" as="targetPoint" />
            <Array as="points">
              <mxPoint x="1110" y="220" />
              <mxPoint x="1110" y="680" />
            </Array>
          </mxGeometry>
        </mxCell>
        <mxCell id="CH4vfQJ2e6H9l5YuJAfh-238" value="" style="endArrow=classic;html=1;rounded=0;" parent="1" edge="1">
          <mxGeometry width="50" height="50" relative="1" as="geometry">
            <mxPoint x="870" y="240" as="sourcePoint" />
            <mxPoint x="870" y="670" as="targetPoint" />
            <Array as="points">
              <mxPoint x="1100" y="240" />
              <mxPoint x="1100" y="670" />
            </Array>
          </mxGeometry>
        </mxCell>
        <mxCell id="CH4vfQJ2e6H9l5YuJAfh-239" value="" style="endArrow=classic;html=1;rounded=0;" parent="1" edge="1">
          <mxGeometry width="50" height="50" relative="1" as="geometry">
            <mxPoint x="870" y="260" as="sourcePoint" />
            <mxPoint x="870" y="660" as="targetPoint" />
            <Array as="points">
              <mxPoint x="1090" y="260" />
              <mxPoint x="1090" y="660" />
            </Array>
          </mxGeometry>
        </mxCell>
        <mxCell id="CH4vfQJ2e6H9l5YuJAfh-240" value="" style="endArrow=classic;html=1;rounded=0;" parent="1" edge="1">
          <mxGeometry width="50" height="50" relative="1" as="geometry">
            <mxPoint x="870" y="280" as="sourcePoint" />
            <mxPoint x="870" y="650" as="targetPoint" />
            <Array as="points">
              <mxPoint x="1080" y="280" />
              <mxPoint x="1080" y="650" />
            </Array>
          </mxGeometry>
        </mxCell>
        <mxCell id="CH4vfQJ2e6H9l5YuJAfh-241" value="" style="endArrow=classic;html=1;rounded=0;" parent="1" edge="1">
          <mxGeometry width="50" height="50" relative="1" as="geometry">
            <mxPoint x="870" y="300" as="sourcePoint" />
            <mxPoint x="870" y="640" as="targetPoint" />
            <Array as="points">
              <mxPoint x="1070" y="300" />
              <mxPoint x="1070" y="640" />
            </Array>
          </mxGeometry>
        </mxCell>
        <mxCell id="CH4vfQJ2e6H9l5YuJAfh-243" value="Issue Slot&lt;br&gt;0" style="rounded=1;whiteSpace=wrap;html=1;" parent="1" vertex="1">
          <mxGeometry x="807" y="50" width="63" height="259.14" as="geometry" />
        </mxCell>
        <mxCell id="CH4vfQJ2e6H9l5YuJAfh-244" value="&lt;font style=&quot;font-size: 7px;&quot;&gt;opcode0_code_o[31:0]&lt;/font&gt;" style="text;strokeColor=none;align=center;fillColor=none;html=1;verticalAlign=middle;whiteSpace=wrap;rounded=0;" parent="1" vertex="1">
          <mxGeometry x="873" y="206.33" width="70" height="13" as="geometry" />
        </mxCell>
        <mxCell id="CH4vfQJ2e6H9l5YuJAfh-245" value="&lt;font style=&quot;font-size: 7px;&quot;&gt;opcode0_pc_o[31:0]&lt;/font&gt;" style="text;strokeColor=none;align=center;fillColor=none;html=1;verticalAlign=middle;whiteSpace=wrap;rounded=0;" parent="1" vertex="1">
          <mxGeometry x="870" y="226" width="69" height="13" as="geometry" />
        </mxCell>
        <mxCell id="CH4vfQJ2e6H9l5YuJAfh-246" value="&lt;font style=&quot;font-size: 7px;&quot;&gt;opcode0_rd_idx[4:0]&lt;/font&gt;" style="text;strokeColor=none;align=center;fillColor=none;html=1;verticalAlign=middle;whiteSpace=wrap;rounded=0;" parent="1" vertex="1">
          <mxGeometry x="870" y="246.04000000000002" width="70" height="13" as="geometry" />
        </mxCell>
        <mxCell id="CH4vfQJ2e6H9l5YuJAfh-247" value="&lt;font style=&quot;font-size: 7px;&quot;&gt;opcode0_ra_idx[4:0]&lt;/font&gt;" style="text;strokeColor=none;align=center;fillColor=none;html=1;verticalAlign=middle;whiteSpace=wrap;rounded=0;" parent="1" vertex="1">
          <mxGeometry x="870" y="266.54" width="70" height="13" as="geometry" />
        </mxCell>
        <mxCell id="CH4vfQJ2e6H9l5YuJAfh-248" value="&lt;font style=&quot;font-size: 7px;&quot;&gt;opcode_0_rb_idx_[4:0]&lt;/font&gt;" style="text;strokeColor=none;align=center;fillColor=none;html=1;verticalAlign=middle;whiteSpace=wrap;rounded=0;" parent="1" vertex="1">
          <mxGeometry x="874" y="285" width="69" height="13" as="geometry" />
        </mxCell>
        <mxCell id="CH4vfQJ2e6H9l5YuJAfh-249" value="" style="endArrow=classic;html=1;rounded=0;" parent="1" edge="1">
          <mxGeometry width="50" height="50" relative="1" as="geometry">
            <mxPoint x="870" y="480" as="sourcePoint" />
            <mxPoint x="870" y="630" as="targetPoint" />
            <Array as="points">
              <mxPoint x="1060" y="480" />
              <mxPoint x="1060" y="630" />
            </Array>
          </mxGeometry>
        </mxCell>
        <mxCell id="CH4vfQJ2e6H9l5YuJAfh-250" value="" style="endArrow=classic;html=1;rounded=0;" parent="1" edge="1">
          <mxGeometry width="50" height="50" relative="1" as="geometry">
            <mxPoint x="870" y="500" as="sourcePoint" />
            <mxPoint x="870" y="620" as="targetPoint" />
            <Array as="points">
              <mxPoint x="1050" y="500" />
              <mxPoint x="1050" y="620" />
            </Array>
          </mxGeometry>
        </mxCell>
        <mxCell id="CH4vfQJ2e6H9l5YuJAfh-251" value="" style="endArrow=classic;html=1;rounded=0;" parent="1" edge="1">
          <mxGeometry width="50" height="50" relative="1" as="geometry">
            <mxPoint x="870" y="520" as="sourcePoint" />
            <mxPoint x="870" y="610" as="targetPoint" />
            <Array as="points">
              <mxPoint x="1040" y="520" />
              <mxPoint x="1040" y="610" />
            </Array>
          </mxGeometry>
        </mxCell>
        <mxCell id="CH4vfQJ2e6H9l5YuJAfh-252" value="" style="endArrow=classic;html=1;rounded=0;" parent="1" edge="1">
          <mxGeometry width="50" height="50" relative="1" as="geometry">
            <mxPoint x="870" y="540" as="sourcePoint" />
            <mxPoint x="870" y="600" as="targetPoint" />
            <Array as="points">
              <mxPoint x="1030" y="540" />
              <mxPoint x="1030" y="600" />
            </Array>
          </mxGeometry>
        </mxCell>
        <mxCell id="CH4vfQJ2e6H9l5YuJAfh-253" value="" style="endArrow=classic;html=1;rounded=0;" parent="1" edge="1">
          <mxGeometry width="50" height="50" relative="1" as="geometry">
            <mxPoint x="870" y="560" as="sourcePoint" />
            <mxPoint x="870" y="590" as="targetPoint" />
            <Array as="points">
              <mxPoint x="1020" y="560" />
              <mxPoint x="1020" y="590" />
            </Array>
          </mxGeometry>
        </mxCell>
        <mxCell id="CH4vfQJ2e6H9l5YuJAfh-254" value="&lt;font style=&quot;font-size: 7px;&quot;&gt;opcode1_code_o[31:0]&lt;/font&gt;" style="text;strokeColor=none;align=center;fillColor=none;html=1;verticalAlign=middle;whiteSpace=wrap;rounded=0;" parent="1" vertex="1">
          <mxGeometry x="872" y="465.64" width="70" height="13" as="geometry" />
        </mxCell>
        <mxCell id="CH4vfQJ2e6H9l5YuJAfh-255" value="&lt;font style=&quot;font-size: 7px;&quot;&gt;opcode1_pc_o[31:0]&lt;/font&gt;" style="text;strokeColor=none;align=center;fillColor=none;html=1;verticalAlign=middle;whiteSpace=wrap;rounded=0;" parent="1" vertex="1">
          <mxGeometry x="870" y="486.31000000000006" width="69" height="13" as="geometry" />
        </mxCell>
        <mxCell id="CH4vfQJ2e6H9l5YuJAfh-256" value="&lt;font style=&quot;font-size: 7px;&quot;&gt;opcode1_rd_idx[4:0]&lt;/font&gt;" style="text;strokeColor=none;align=center;fillColor=none;html=1;verticalAlign=middle;whiteSpace=wrap;rounded=0;" parent="1" vertex="1">
          <mxGeometry x="869" y="505.5" width="70" height="13" as="geometry" />
        </mxCell>
        <mxCell id="CH4vfQJ2e6H9l5YuJAfh-257" value="&lt;font style=&quot;font-size: 7px;&quot;&gt;opcode1_ra_idx[4:0]&lt;/font&gt;" style="text;strokeColor=none;align=center;fillColor=none;html=1;verticalAlign=middle;whiteSpace=wrap;rounded=0;" parent="1" vertex="1">
          <mxGeometry x="869" y="525.85" width="70" height="13" as="geometry" />
        </mxCell>
        <mxCell id="CH4vfQJ2e6H9l5YuJAfh-258" value="&lt;font style=&quot;font-size: 7px;&quot;&gt;opcode1_rb_idx_[4:0]&lt;/font&gt;" style="text;strokeColor=none;align=center;fillColor=none;html=1;verticalAlign=middle;whiteSpace=wrap;rounded=0;" parent="1" vertex="1">
          <mxGeometry x="872" y="545.86" width="69" height="13" as="geometry" />
        </mxCell>
        <mxCell id="CH4vfQJ2e6H9l5YuJAfh-259" value="LSU&lt;br&gt;Issue" style="rounded=1;whiteSpace=wrap;html=1;" parent="1" vertex="1">
          <mxGeometry x="817" y="585.5" width="43" height="48.5" as="geometry" />
        </mxCell>
        <mxCell id="CH4vfQJ2e6H9l5YuJAfh-263" value="" style="endArrow=classic;html=1;rounded=0;" parent="1" edge="1">
          <mxGeometry width="50" height="50" relative="1" as="geometry">
            <mxPoint x="1030" y="180" as="sourcePoint" />
            <mxPoint x="870" y="720" as="targetPoint" />
            <Array as="points">
              <mxPoint x="1150" y="180" />
              <mxPoint x="1150" y="720" />
            </Array>
          </mxGeometry>
        </mxCell>
        <mxCell id="CH4vfQJ2e6H9l5YuJAfh-264" value="" style="endArrow=classic;html=1;rounded=0;" parent="1" edge="1">
          <mxGeometry width="50" height="50" relative="1" as="geometry">
            <mxPoint x="1039" y="200" as="sourcePoint" />
            <mxPoint x="870" y="710" as="targetPoint" />
            <Array as="points">
              <mxPoint x="1140" y="200" />
              <mxPoint x="1140" y="710" />
            </Array>
          </mxGeometry>
        </mxCell>
        <mxCell id="CH4vfQJ2e6H9l5YuJAfh-265" value="" style="endArrow=classic;html=1;rounded=0;" parent="1" edge="1">
          <mxGeometry width="50" height="50" relative="1" as="geometry">
            <mxPoint x="1050" y="440" as="sourcePoint" />
            <mxPoint x="870" y="700" as="targetPoint" />
            <Array as="points">
              <mxPoint x="1130" y="440" />
              <mxPoint x="1130" y="700" />
            </Array>
          </mxGeometry>
        </mxCell>
        <mxCell id="CH4vfQJ2e6H9l5YuJAfh-266" value="" style="endArrow=classic;html=1;rounded=0;" parent="1" edge="1">
          <mxGeometry width="50" height="50" relative="1" as="geometry">
            <mxPoint x="1060" y="460" as="sourcePoint" />
            <mxPoint x="870" y="690" as="targetPoint" />
            <Array as="points">
              <mxPoint x="1120" y="460" />
              <mxPoint x="1120" y="690" />
            </Array>
          </mxGeometry>
        </mxCell>
        <mxCell id="CH4vfQJ2e6H9l5YuJAfh-304" value="" style="endArrow=classic;html=1;rounded=0;exitX=0.993;exitY=0.087;exitDx=0;exitDy=0;exitPerimeter=0;" parent="1" edge="1">
          <mxGeometry width="50" height="50" relative="1" as="geometry">
            <mxPoint x="449.58349999999996" y="370.5857699999999" as="sourcePoint" />
            <mxPoint x="530" y="370" as="targetPoint" />
          </mxGeometry>
        </mxCell>
        <mxCell id="CH4vfQJ2e6H9l5YuJAfh-305" value="" style="endArrow=classic;html=1;rounded=0;" parent="1" edge="1">
          <mxGeometry width="50" height="50" relative="1" as="geometry">
            <mxPoint x="450" y="390" as="sourcePoint" />
            <mxPoint x="530" y="390" as="targetPoint" />
          </mxGeometry>
        </mxCell>
        <mxCell id="CH4vfQJ2e6H9l5YuJAfh-306" value="" style="endArrow=classic;html=1;rounded=0;" parent="1" edge="1">
          <mxGeometry width="50" height="50" relative="1" as="geometry">
            <mxPoint x="450" y="410" as="sourcePoint" />
            <mxPoint x="530" y="410" as="targetPoint" />
          </mxGeometry>
        </mxCell>
        <mxCell id="CH4vfQJ2e6H9l5YuJAfh-307" value="" style="endArrow=classic;html=1;rounded=0;" parent="1" edge="1">
          <mxGeometry width="50" height="50" relative="1" as="geometry">
            <mxPoint x="450" y="430" as="sourcePoint" />
            <mxPoint x="530" y="430" as="targetPoint" />
          </mxGeometry>
        </mxCell>
        <mxCell id="CH4vfQJ2e6H9l5YuJAfh-308" value="" style="endArrow=classic;html=1;rounded=0;" parent="1" edge="1">
          <mxGeometry width="50" height="50" relative="1" as="geometry">
            <mxPoint x="450" y="450" as="sourcePoint" />
            <mxPoint x="530" y="450" as="targetPoint" />
          </mxGeometry>
        </mxCell>
        <mxCell id="CH4vfQJ2e6H9l5YuJAfh-309" value="&lt;font style=&quot;font-size: 10px;&quot;&gt;Scheduling&lt;/font&gt;" style="rounded=1;whiteSpace=wrap;html=1;" parent="1" vertex="1">
          <mxGeometry x="390" y="342.9" width="59.25" height="337.1" as="geometry" />
        </mxCell>
        <mxCell id="CH4vfQJ2e6H9l5YuJAfh-312" value="Pipeline Control" style="rounded=1;whiteSpace=wrap;html=1;" parent="1" vertex="1">
          <mxGeometry x="262.8" y="27.5" width="807.2" height="18.5" as="geometry" />
        </mxCell>
        <mxCell id="1mb2q4nJSbc4ep4aBZYX-3" value="&lt;font style=&quot;font-size: 7px;&quot;&gt;fetch0_pc_i[31:0]&lt;/font&gt;" style="text;strokeColor=none;align=center;fillColor=none;html=1;verticalAlign=middle;whiteSpace=wrap;rounded=0;" parent="1" vertex="1">
          <mxGeometry x="172" y="67" width="56" height="10" as="geometry" />
        </mxCell>
        <mxCell id="1mb2q4nJSbc4ep4aBZYX-4" value="&lt;font style=&quot;font-size: 7px;&quot;&gt;fetch1_pc_i[31:0]&lt;/font&gt;" style="text;strokeColor=none;align=center;fillColor=none;html=1;verticalAlign=middle;whiteSpace=wrap;rounded=0;" parent="1" vertex="1">
          <mxGeometry x="170" y="86.55999999999999" width="61.1" height="10" as="geometry" />
        </mxCell>
        <mxCell id="1mb2q4nJSbc4ep4aBZYX-5" value="" style="endArrow=classic;html=1;rounded=0;" parent="1" edge="1">
          <mxGeometry width="50" height="50" relative="1" as="geometry">
            <mxPoint x="157.35" y="99.05999999999999" as="sourcePoint" />
            <mxPoint x="237.35" y="99.05999999999999" as="targetPoint" />
            <Array as="points" />
          </mxGeometry>
        </mxCell>
        <mxCell id="1mb2q4nJSbc4ep4aBZYX-6" value="" style="endArrow=classic;html=1;rounded=0;" parent="1" edge="1">
          <mxGeometry width="50" height="50" relative="1" as="geometry">
            <mxPoint x="157.35" y="79.05999999999999" as="sourcePoint" />
            <mxPoint x="237.35" y="79.05999999999999" as="targetPoint" />
            <Array as="points" />
          </mxGeometry>
        </mxCell>
        <mxCell id="1mb2q4nJSbc4ep4aBZYX-26" value="" style="endArrow=classic;html=1;rounded=0;strokeWidth=3;exitX=0.001;exitY=0.154;exitDx=0;exitDy=0;exitPerimeter=0;" parent="1" edge="1">
          <mxGeometry width="50" height="50" relative="1" as="geometry">
            <mxPoint x="807.0799999999999" y="607.918" as="sourcePoint" />
            <mxPoint x="720.08" y="608" as="targetPoint" />
            <Array as="points" />
          </mxGeometry>
        </mxCell>
        <mxCell id="1mb2q4nJSbc4ep4aBZYX-27" value="" style="endArrow=classic;html=1;rounded=0;strokeWidth=3;exitX=-0.002;exitY=0.472;exitDx=0;exitDy=0;exitPerimeter=0;" parent="1" edge="1">
          <mxGeometry width="50" height="50" relative="1" as="geometry">
            <mxPoint x="806.8399999999999" y="676.9240000000001" as="sourcePoint" />
            <mxPoint x="720.08" y="677.14" as="targetPoint" />
            <Array as="points" />
          </mxGeometry>
        </mxCell>
        <mxCell id="1mb2q4nJSbc4ep4aBZYX-28" value="" style="endArrow=classic;html=1;rounded=0;strokeWidth=3;exitX=0;exitY=0.804;exitDx=0;exitDy=0;exitPerimeter=0;" parent="1" edge="1">
          <mxGeometry width="50" height="50" relative="1" as="geometry">
            <mxPoint x="807" y="748.9680000000001" as="sourcePoint" />
            <mxPoint x="720" y="748.78" as="targetPoint" />
            <Array as="points" />
          </mxGeometry>
        </mxCell>
        <mxCell id="1mb2q4nJSbc4ep4aBZYX-31" value="LSU" style="rounded=1;whiteSpace=wrap;html=1;" parent="1" vertex="1">
          <mxGeometry x="662.05" y="576" width="57.1" height="58" as="geometry" />
        </mxCell>
        <mxCell id="1mb2q4nJSbc4ep4aBZYX-32" value="CSR" style="rounded=1;whiteSpace=wrap;html=1;" parent="1" vertex="1">
          <mxGeometry x="662.05" y="645.86" width="57.1" height="58" as="geometry" />
        </mxCell>
        <mxCell id="1mb2q4nJSbc4ep4aBZYX-33" value="Multiply" style="rounded=1;whiteSpace=wrap;html=1;" parent="1" vertex="1">
          <mxGeometry x="663.5" y="715.95" width="57.1" height="58" as="geometry" />
        </mxCell>
        <mxCell id="1mb2q4nJSbc4ep4aBZYX-35" value="CSR&lt;br&gt;Issue" style="rounded=1;whiteSpace=wrap;html=1;" parent="1" vertex="1">
          <mxGeometry x="818.45" y="650.61" width="43" height="48.5" as="geometry" />
        </mxCell>
        <mxCell id="1mb2q4nJSbc4ep4aBZYX-37" value="MUL&lt;br&gt;Issue" style="rounded=1;whiteSpace=wrap;html=1;" parent="1" vertex="1">
          <mxGeometry x="818.45" y="725.45" width="43" height="48.5" as="geometry" />
        </mxCell>
        <mxCell id="1mb2q4nJSbc4ep4aBZYX-40" value="Decode" style="rounded=1;whiteSpace=wrap;html=1;" parent="1" vertex="1">
          <mxGeometry x="392.9" y="692.95" width="57.1" height="32" as="geometry" />
        </mxCell>
        <mxCell id="1mb2q4nJSbc4ep4aBZYX-41" value="Exec" style="rounded=1;whiteSpace=wrap;html=1;" parent="1" vertex="1">
          <mxGeometry x="392.9" y="734.2" width="57.1" height="32" as="geometry" />
        </mxCell>
        <mxCell id="1mb2q4nJSbc4ep4aBZYX-42" value="Div" style="rounded=1;whiteSpace=wrap;html=1;" parent="1" vertex="1">
          <mxGeometry x="392.9" y="774.45" width="57.1" height="32" as="geometry" />
        </mxCell>
        <mxCell id="mu9b0w2JKODKvYEpF6Kd-1" value="&lt;font style=&quot;font-size: 7px;&quot;&gt;pipe0_rd_wb_w[4:0]&lt;/font&gt;" style="text;strokeColor=none;align=center;fillColor=none;html=1;verticalAlign=middle;whiteSpace=wrap;rounded=0;" vertex="1" parent="1">
          <mxGeometry x="738" y="47.999999999999986" width="55" height="10" as="geometry" />
        </mxCell>
        <mxCell id="mu9b0w2JKODKvYEpF6Kd-6" value="" style="endArrow=classic;html=1;rounded=0;entryX=-0.002;entryY=0.85;entryDx=0;entryDy=0;entryPerimeter=0;exitX=1.002;exitY=0.092;exitDx=0;exitDy=0;exitPerimeter=0;" edge="1" parent="1" source="CH4vfQJ2e6H9l5YuJAfh-208">
          <mxGeometry width="50" height="50" relative="1" as="geometry">
            <mxPoint x="160" y="289.4" as="sourcePoint" />
            <mxPoint x="807" y="289.4" as="targetPoint" />
            <Array as="points" />
          </mxGeometry>
        </mxCell>
        <mxCell id="mu9b0w2JKODKvYEpF6Kd-7" value="Issue Slot&lt;br&gt;1" style="rounded=1;whiteSpace=wrap;html=1;" vertex="1" parent="1">
          <mxGeometry x="807" y="313" width="63" height="257" as="geometry" />
        </mxCell>
      </root>
    </mxGraphModel>
  </diagram>
</mxfile>
